<svg xmlns="http://www.w3.org/2000/svg" xmlns:xlink="http://www.w3.org/1999/xlink" width="270" height="176" viewBox="0 0 270 176">
  <defs>
    <clipPath id="clip-path">
      <path id="Path_37" data-name="Path 37" d="M387.257,204.2h0c.008.062.014-.018.017-.1a.784.784,0,0,0,0-.12,1.8,1.8,0,0,0-.016.217m-25.605-23.107c-13.679.433-24.4,11.39-23.943,24.476.01.269.051.4.072.668a65.827,65.827,0,0,1,17.663,4.777c2.6-1.015,11.72-7.241,31.813-6.813,0-.03-.008-.092-.012-.2-.445-12.816-11.449-22.918-24.756-22.918q-.416,0-.836.014" transform="translate(-337.694 -181.081)" fill="none" stroke="rgba(0,0,0,0)" stroke-width="1"/>
    </clipPath>
    <linearGradient id="linear-gradient" x1="-5.938" y1="4.336" x2="-5.921" y2="4.336" gradientUnits="objectBoundingBox">
      <stop offset="0" stop-color="#f27c0e"/>
      <stop offset="0.905" stop-color="#ffc600"/>
      <stop offset="1" stop-color="#ffc600"/>
    </linearGradient>
    <clipPath id="clip-Logo-on-scroll-color">
      <rect width="270" height="176"/>
    </clipPath>
  </defs>
  <g id="Logo-on-scroll-color" clip-path="url(#clip-Logo-on-scroll-color)">
    <g id="Group_7" data-name="Group 7" transform="translate(-148.822 -141.673)">
      <g id="Group_2" data-name="Group 2" transform="translate(154.094 164.403)">
        <g id="Group_12" data-name="Group 12">
          <path id="Path_1" data-name="Path 1" d="M308.281,220.582s-1.255.325-1.883-.324c0,0-1.96,3-1.8,3.325a4.483,4.483,0,0,1,2.589.405s-.314-.648,1.1-3.406" transform="translate(-229.34 -192.331)" fill="#7e6320" stroke="rgba(0,0,0,0)" stroke-width="1"/>
          <path id="Path_2" data-name="Path 2" d="M311.052,215.344a2.393,2.393,0,0,1-1.415-.255l-.923,2.418s.123.255,1.784.191Z" transform="translate(-231.404 -189.747)" fill="#7e6320" stroke="rgba(0,0,0,0)" stroke-width="1"/>
          <path id="Path_3" data-name="Path 3" d="M312.468,209.489s-.185.509-1.231.063a7.823,7.823,0,0,1-.554,2.482s.923.509,1.478.128Z" transform="translate(-232.388 -186.946)" fill="#7e6320" stroke="rgba(0,0,0,0)" stroke-width="1"/>
          <path id="Path_4" data-name="Path 4" d="M313.1,207.113a.786.786,0,0,1-1.19-.085l.288-1.867a1.463,1.463,0,0,0,.984.042Z" transform="translate(-233.004 -184.783)" fill="#7e6320" stroke="rgba(0,0,0,0)" stroke-width="1"/>
          <path id="Path_5" data-name="Path 5" d="M313.31,201.513l.123,1.527s-.2.339-.984.085l-.041-1.612s.164.255.9,0" transform="translate(-233.25 -182.958)" fill="#7e6320" stroke="rgba(0,0,0,0)" stroke-width="1"/>
          <path id="Path_6" data-name="Path 6" d="M312.078,197.738l.123,1.654a.8.8,0,0,0,.944-.127l-.165-1.57a.837.837,0,0,1-.9.042" transform="translate(-233.086 -181.049)" fill="#7e6320" stroke="rgba(0,0,0,0)" stroke-width="1"/>
          <path id="Path_7" data-name="Path 7" d="M312.405,195.659l.082.934a.8.8,0,0,1-1.067-.892Z" transform="translate(-232.757 -180.031)" fill="#7e6320" stroke="rgba(0,0,0,0)" stroke-width="1"/>
          <path id="Path_8" data-name="Path 8" d="M295.372,184.288s.9.509,1.477.085c0,0,.247,1.7-1.313,1.273Z" transform="translate(-224.733 -174.346)" fill="#7e6320" stroke="rgba(0,0,0,0)" stroke-width="1"/>
          <path id="Path_9" data-name="Path 9" d="M295,187.428s.246.382,1.108.128l-.124,2.079s-.82.382-1.271-.169Z" transform="translate(-224.405 -175.916)" fill="#7e6320" stroke="rgba(0,0,0,0)" stroke-width="1"/>
          <path id="Path_10" data-name="Path 10" d="M294.634,192.349a1.5,1.5,0,0,0,1.313.128l-.164,1.952a1.078,1.078,0,0,1-1.231-.043Z" transform="translate(-224.323 -178.376)" fill="#7e6320" stroke="rgba(0,0,0,0)" stroke-width="1"/>
          <path id="Path_11" data-name="Path 11" d="M294.675,197.61s.862.212,1.149-.085l.287,2.333a.99.99,0,0,1-1.477.043Z" transform="translate(-224.364 -180.964)" fill="#7e6320" stroke="rgba(0,0,0,0)" stroke-width="1"/>
          <path id="Path_12" data-name="Path 12" d="M294.716,203.125s.287.721,1.6.043a11.927,11.927,0,0,0,.616,3.182s-.616.848-1.929.042Z" transform="translate(-224.405 -183.764)" fill="#7e6320" stroke="rgba(0,0,0,0)" stroke-width="1"/>
          <path id="Path_13" data-name="Path 13" d="M295.618,210.974a3.611,3.611,0,0,0,1.928-.382s.9,3.012,1.19,3.055a2.355,2.355,0,0,1-2.3.127Z" transform="translate(-224.856 -187.498)" fill="#7e6320" stroke="rgba(0,0,0,0)" stroke-width="1"/>
          <path id="Path_14" data-name="Path 14" d="M297.834,217.508a2.275,2.275,0,0,0,2.379-.467s2.3,3.182,2.257,4.285l-3.242,1.061s.9-.212-1.395-4.879" transform="translate(-225.964 -190.722)" fill="#7e6320" stroke="rgba(0,0,0,0)" stroke-width="1"/>
          <path id="Path_15" data-name="Path 15" d="M304.165,186.5s-.538-1.73-1.143-2.015c0,0,.814,1.418.641,1.82,0,0-.87-3.232-3.031-3.106a2.136,2.136,0,0,0-1.567,1.058,1.7,1.7,0,0,1,1.5.3s-.7.017-.749.282A3.012,3.012,0,0,1,302,185.9s-.7-.224-.947-.014a3.9,3.9,0,0,1,2.679,2.586,3.6,3.6,0,0,0-3.807-1.949s1.551.387,1.638.884c0,0-2.948-2.122-4.449,1.543a6.419,6.419,0,0,0-.264,2.277,3.094,3.094,0,0,1,1.363-1.594s-.334.246-.384,1.285a3.209,3.209,0,0,1,2.237-1.773s-.639.526-.6,1.04c0,0,1.069-1.829,3.557-.826a2.684,2.684,0,0,0-3.127,2.09,1.808,1.808,0,0,1,1.352-.9s-2.685,1.092-.781,4.7a5.518,5.518,0,0,0,2.051,2.288s-.347-.147-.86-2.352c0,0,.888,1.255.962,1.269a6.137,6.137,0,0,1-.558-3.359s.268,1.108.659,1.37c0,0-1.086-3.167,1.355-4.315l1.13.36a5.187,5.187,0,0,1,1.482,5.065,2.772,2.772,0,0,0,.621-1.426,7.476,7.476,0,0,1-.4,3.771,2.711,2.711,0,0,0,.961-1.165,5.568,5.568,0,0,1-.664,2.484s3.026-1.453,2.734-4.61a4.734,4.734,0,0,0-1.824-3.176s.517.055,1.642,1.435c0,0-1.049-3.116-4.051-3.444,0,0,2.273-.327,4.174,2.42,0,0,.084-.454-.783-1.519a7.17,7.17,0,0,1,2.691,3.023,3.713,3.713,0,0,0-.494-1.659,5.337,5.337,0,0,1,1.593,2.385,6.42,6.42,0,0,0-1.5-4.945,4.206,4.206,0,0,0-3.951-1.426s1.417-.6,1.881-.278c0,0-2.81-1.58-4.354.708a3.256,3.256,0,0,1,2.919-1.962,1.244,1.244,0,0,0-.961-.273,2.552,2.552,0,0,1,2.458-.291s0-.463-.876-.684a3.522,3.522,0,0,1,1.73.182s-.993-2.208-2.993-1.971c0,0-1.554.19-2.2,2.535a3.158,3.158,0,0,1,.713-1.818,4.026,4.026,0,0,0-1.583,2.637" transform="translate(-225.464 -173.766)" fill="#45a735" stroke="rgba(0,0,0,0)" stroke-width="1"/>
          <path id="Path_16" data-name="Path 16" d="M284.92,169.107s.716-2.337,1.573-2.7c0,0-1.12,1.9-.86,2.457,0,0,1.143-4.372,4.24-4.127a3.267,3.267,0,0,1,2.276,1.493,2.5,2.5,0,0,0-2.138.354s1,.047,1.081.41A4.23,4.23,0,0,0,288,168.359s1-.281,1.354.014a5.18,5.18,0,0,0-3.752,3.43,4.927,4.927,0,0,1,5.387-2.527s-2.209.475-2.316,1.148c0,0,4.152-2.79,6.414,2.25a8.512,8.512,0,0,1,.45,3.109,4.543,4.543,0,0,0-2-2.217s.486.347.59,1.763a4.818,4.818,0,0,0-3.257-2.489s.931.737.888,1.436c0,0-1.586-2.526-5.115-1.244a4.06,4.06,0,0,1,4.54,2.951,2.743,2.743,0,0,0-1.963-1.276s3.876,1.576,1.265,6.426a7.122,7.122,0,0,1-2.865,3.044s.492-.188,1.157-3.172c0,0-1.232,1.678-1.337,1.7a7.808,7.808,0,0,0,.693-4.555s-.348,1.5-.9,1.844c0,0,1.453-4.276-2.076-5.92l-1.606.451a6.6,6.6,0,0,0-1.961,6.846,3.915,3.915,0,0,1-.935-1.963,9.82,9.82,0,0,0,.688,5.146,4.024,4.024,0,0,1-1.411-1.619,7.507,7.507,0,0,0,1.03,3.4s-4.378-2.079-4.057-6.367c0,0,.334-3.089,2.511-4.264,0,0-.739.058-2.3,1.9,0,0,1.4-4.206,5.688-4.553,0,0-3.264-.521-5.9,3.155,0,0-.134-.622,1.074-2.042a9.334,9.334,0,0,0-3.757,4.025,4.706,4.706,0,0,1,.655-2.242,6.836,6.836,0,0,0-2.2,3.194s-.81-3.136,2-6.681a5.886,5.886,0,0,1,5.609-1.81s-2.046-.862-2.7-.441c0,0,3.972-2.057,6.254,1.11a4.91,4.91,0,0,0-4.239-2.769,1.761,1.761,0,0,1,1.366-.34s-1.9-1.31-3.527-.479c0,0-.008-.63,1.234-.9a5.234,5.234,0,0,0-2.471.189s1.354-2.973,4.222-2.583c0,0,2.231.311,3.234,3.525a4.348,4.348,0,0,0-1.078-2.5,5.832,5.832,0,0,1,2.349,3.642" transform="translate(-213.328 -164.403)" fill="#45a735" stroke="rgba(0,0,0,0)" stroke-width="1"/>
          <path id="Path_17" data-name="Path 17" d="M157.993,321.536c0-7.065,0-8.365-.077-9.853-.077-1.58-.386-2.322-1.66-2.65a6.64,6.64,0,0,0-1.5-.138c-.425,0-.657-.095-.657-.42s.271-.418.85-.418c2.046,0,4.477.14,5.558.14,1.583,0,3.822-.14,5.6-.14,4.825,0,6.562,1.952,7.18,2.65a8.912,8.912,0,0,1,1.93,5.53c0,6.6-4.014,11.245-9.5,11.245a4.647,4.647,0,0,1-.811-.048c-.193-.045-.464-.092-.464-.417,0-.372.27-.513,1.081-.513,2.161,0,5.172-2.927,5.172-7.667,0-1.533-.115-4.645-2.277-6.97a5.208,5.208,0,0,0-3.86-1.813,4.567,4.567,0,0,0-1.506.188c-.193.093-.309.371-.309.883v18.587c0,4.274,0,7.944.193,9.944.116,1.3.348,2.323,1.506,2.51a13.633,13.633,0,0,0,1.968.185c.425,0,.618.14.618.372,0,.325-.309.462-.733.462-2.548,0-4.98-.138-5.984-.138-.887,0-3.319.138-4.863.138-.5,0-.772-.138-.772-.462,0-.233.154-.372.618-.372a5.313,5.313,0,0,0,1.39-.185c.772-.187.965-1.21,1.119-2.558.193-1.952.193-5.622.193-9.9Z" transform="translate(-154.094 -236.231)" fill="#004e9c" stroke="rgba(0,0,0,0)" stroke-width="1"/>
          <path id="Path_18" data-name="Path 18" d="M157.993,321.536c0-7.065,0-8.365-.077-9.853-.077-1.58-.386-2.322-1.66-2.65a6.64,6.64,0,0,0-1.5-.138c-.425,0-.657-.095-.657-.42s.271-.418.85-.418c2.046,0,4.477.14,5.558.14,1.583,0,3.822-.14,5.6-.14,4.825,0,6.562,1.952,7.18,2.65a8.912,8.912,0,0,1,1.93,5.53c0,6.6-4.014,11.245-9.5,11.245a4.647,4.647,0,0,1-.811-.048c-.193-.045-.464-.092-.464-.417,0-.372.27-.513,1.081-.513,2.161,0,5.172-2.927,5.172-7.667,0-1.533-.115-4.645-2.277-6.97a5.208,5.208,0,0,0-3.86-1.813,4.567,4.567,0,0,0-1.506.188c-.193.093-.309.371-.309.883v18.587c0,4.274,0,7.944.193,9.944.116,1.3.348,2.323,1.506,2.51a13.633,13.633,0,0,0,1.968.185c.425,0,.618.14.618.372,0,.325-.309.462-.733.462-2.548,0-4.98-.138-5.984-.138-.887,0-3.319.138-4.863.138-.5,0-.772-.138-.772-.462,0-.233.154-.372.618-.372a5.313,5.313,0,0,0,1.39-.185c.772-.187.965-1.21,1.119-2.558.193-1.952.193-5.622.193-9.9Z" transform="translate(-154.094 -236.231)" fill="none" stroke="#004e9c" stroke-miterlimit="10" stroke-width="1"/>
          <path id="Path_19" data-name="Path 19" d="M201.1,329.991c0-5.995.038-7.11-.039-8.365-.077-1.392-.386-1.765-1.466-2.137a5.173,5.173,0,0,0-1.313-.137q-.579,0-.579-.42c0-.277.232-.37.733-.372,1.814,0,4.092.1,5.1.1.849,0,3.126-.1,4.362-.092.5,0,.733.092.733.37s-.193.42-.54.42a4,4,0,0,0-1,.137c-.888.188-1.158.745-1.234,2.137-.078,1.255-.078,2.37-.078,8.365v5.53c0,5.763.926,7.992,2.587,9.572a5.783,5.783,0,0,0,4.285,1.58,5.883,5.883,0,0,0,4.555-2.09c1.891-2.138,1.968-5.577,1.968-9.62v-4.973c0-5.995-.038-7.11-.077-8.365-.077-1.347-.347-1.765-1.428-2.137a4.93,4.93,0,0,0-1.234-.137q-.579,0-.579-.42c0-.277.231-.37.694-.372,1.738,0,4.015.1,4.053.1.387,0,2.664-.1,3.976-.092.464,0,.694.092.694.37s-.192.42-.579.42a3.985,3.985,0,0,0-1,.137c-.927.188-1.158.745-1.235,2.137-.038,1.255-.077,2.37-.077,8.365v4.23c0,4.412-.386,9.06-3.242,11.894a9.442,9.442,0,0,1-7.18,2.835c-1.776,0-5.288-.092-7.758-2.7-1.737-1.812-3.088-4.74-3.088-10.454Z" transform="translate(-175.896 -241.481)" fill="#004e9c" stroke="rgba(0,0,0,0)" stroke-width="1"/>
          <path id="Path_20" data-name="Path 20" d="M201.1,329.991c0-5.995.038-7.11-.039-8.365-.077-1.392-.386-1.765-1.466-2.137a5.173,5.173,0,0,0-1.313-.137q-.579,0-.579-.42c0-.277.232-.37.733-.372,1.814,0,4.092.1,5.1.1.849,0,3.126-.1,4.362-.092.5,0,.733.092.733.37s-.193.42-.54.42a4,4,0,0,0-1,.137c-.888.188-1.158.745-1.234,2.137-.078,1.255-.078,2.37-.078,8.365v5.53c0,5.763.926,7.992,2.587,9.572a5.783,5.783,0,0,0,4.285,1.58,5.883,5.883,0,0,0,4.555-2.09c1.891-2.138,1.968-5.577,1.968-9.62v-4.973c0-5.995-.038-7.11-.077-8.365-.077-1.347-.347-1.765-1.428-2.137a4.93,4.93,0,0,0-1.234-.137q-.579,0-.579-.42c0-.277.231-.37.694-.372,1.738,0,4.015.1,4.053.1.387,0,2.664-.1,3.976-.092.464,0,.694.092.694.37s-.192.42-.579.42a3.985,3.985,0,0,0-1,.137c-.927.188-1.158.745-1.235,2.137-.038,1.255-.077,2.37-.077,8.365v4.23c0,4.412-.386,9.06-3.242,11.894a9.442,9.442,0,0,1-7.18,2.835c-1.776,0-5.288-.092-7.758-2.7-1.737-1.812-3.088-4.74-3.088-10.454Z" transform="translate(-175.896 -241.481)" fill="none" stroke="#004e9c" stroke-miterlimit="10" stroke-width="1"/>
          <path id="Path_21" data-name="Path 21" d="M255.732,342.355c.077,3.065.5,4,1.158,4.275a4.9,4.9,0,0,0,1.776.277c.386,0,.579.185.579.418,0,.325-.309.417-.772.417-2.2,0-3.783-.138-4.4-.138-.309,0-1.93.138-3.667.138-.463,0-.772-.045-.772-.417,0-.233.232-.418.54-.418a5.928,5.928,0,0,0,1.544-.185c.888-.28,1-1.348,1.042-4.788l.309-23.419c0-.79.232-1.348.579-1.348.424,0,.887.6,1.466,1.3.425.512,5.52,6.785,10.462,12.592,2.316,2.742,6.832,8.32,7.333,8.877h.155l-.348-17.567c-.038-2.415-.347-3.112-1.158-3.485a4.826,4.826,0,0,0-1.775-.23c-.424,0-.54-.187-.54-.42,0-.325.347-.37.849-.372,1.776,0,3.59.1,4.324.1.386,0,1.66-.1,3.319-.093.464,0,.772.045.772.37,0,.233-.193.42-.579.42a2.931,2.931,0,0,0-1.042.137c-.926.325-1.2,1.022-1.235,3.253l-.387,24.91c0,.882-.27,1.253-.54,1.253a1.926,1.926,0,0,1-1.389-.835c-2.124-2.37-6.37-7.25-9.921-11.385-3.706-4.274-7.3-9.062-7.952-9.759h-.116Z" transform="translate(-201.863 -240.786)" fill="#004e9c" stroke="rgba(0,0,0,0)" stroke-width="1"/>
          <path id="Path_22" data-name="Path 22" d="M255.732,342.355c.077,3.065.5,4,1.158,4.275a4.9,4.9,0,0,0,1.776.277c.386,0,.579.185.579.418,0,.325-.309.417-.772.417-2.2,0-3.783-.138-4.4-.138-.309,0-1.93.138-3.667.138-.463,0-.772-.045-.772-.417,0-.233.232-.418.54-.418a5.928,5.928,0,0,0,1.544-.185c.888-.28,1-1.348,1.042-4.788l.309-23.419c0-.79.232-1.348.579-1.348.424,0,.887.6,1.466,1.3.425.512,5.52,6.785,10.462,12.592,2.316,2.742,6.832,8.32,7.333,8.877h.155l-.348-17.567c-.038-2.415-.347-3.112-1.158-3.485a4.826,4.826,0,0,0-1.775-.23c-.424,0-.54-.187-.54-.42,0-.325.347-.37.849-.372,1.776,0,3.59.1,4.324.1.386,0,1.66-.1,3.319-.093.464,0,.772.045.772.37,0,.233-.193.42-.579.42a2.931,2.931,0,0,0-1.042.137c-.926.325-1.2,1.022-1.235,3.253l-.387,24.91c0,.882-.27,1.253-.54,1.253a1.926,1.926,0,0,1-1.389-.835c-2.124-2.37-6.37-7.25-9.921-11.385-3.706-4.274-7.3-9.062-7.952-9.759h-.116Z" transform="translate(-201.863 -240.786)" fill="none" stroke="#004e9c" stroke-miterlimit="10" stroke-width="1"/>
          <path id="Path_23" data-name="Path 23" d="M318.844,320.418l-5.056.14c-1.969.045-2.78.325-3.281,1.208a5.015,5.015,0,0,0-.579,1.348c-.077.325-.155.512-.386.512s-.309-.232-.309-.653c0-.65.656-4.46.733-4.785.078-.512.193-.745.386-.745.271,0,.618.326,1.467.466a26.414,26.414,0,0,0,3.4.188H329a12.327,12.327,0,0,0,2.316-.187c.541-.093.811-.186.927-.186.231,0,.27.233.27.835,0,.838-.077,3.765-.077,4.788-.039.417-.116.649-.309.649-.27,0-.348-.185-.386-.789l-.038-.418c-.077-1.022-.965-2.23-4.015-2.277l-4.285-.092V336.4c0,3.625.039,6.74.193,8.457.115,1.115.308,1.86,1.312,2.045a10.643,10.643,0,0,0,1.737.14c.386,0,.541.233.541.418,0,.28-.27.418-.656.418-2.239,0-4.516-.138-5.482-.138-.772,0-3.088.138-4.439.138-.425,0-.656-.138-.656-.418,0-.185.115-.418.54-.418a4.02,4.02,0,0,0,1.2-.14c.7-.185.888-.93,1-2.09.154-1.673.154-4.788.154-8.413Z" transform="translate(-231.663 -240.923)" fill="#004e9c" stroke="rgba(0,0,0,0)" stroke-width="1"/>
          <path id="Path_24" data-name="Path 24" d="M318.844,320.418l-5.056.14c-1.969.045-2.78.325-3.281,1.208a5.015,5.015,0,0,0-.579,1.348c-.077.325-.155.512-.386.512s-.309-.232-.309-.653c0-.65.656-4.46.733-4.785.078-.512.193-.745.386-.745.271,0,.618.326,1.467.466a26.414,26.414,0,0,0,3.4.188H329a12.327,12.327,0,0,0,2.316-.187c.541-.093.811-.186.927-.186.231,0,.27.233.27.835,0,.838-.077,3.765-.077,4.788-.039.417-.116.649-.309.649-.27,0-.348-.185-.386-.789l-.038-.418c-.077-1.022-.965-2.23-4.015-2.277l-4.285-.092V336.4c0,3.625.039,6.74.193,8.457.115,1.115.308,1.86,1.312,2.045a10.643,10.643,0,0,0,1.737.14c.386,0,.541.233.541.418,0,.28-.27.418-.656.418-2.239,0-4.516-.138-5.482-.138-.772,0-3.088.138-4.439.138-.425,0-.656-.138-.656-.418,0-.185.115-.418.54-.418a4.02,4.02,0,0,0,1.2-.14c.7-.185.888-.93,1-2.09.154-1.673.154-4.788.154-8.413Z" transform="translate(-231.663 -240.923)" fill="none" stroke="#004e9c" stroke-miterlimit="10" stroke-width="1"/>
          <path id="Path_25" data-name="Path 25" d="M354.358,337.569c-.193,0-.231.045-.309.277l-1.814,5.3a8.414,8.414,0,0,0-.5,2.418c0,.7.309,1.115,1.351,1.115h.5c.425,0,.5.184.5.417,0,.325-.193.417-.54.417-1.12,0-2.7-.138-3.783-.138-.348,0-2.161.138-3.937.138-.424,0-.618-.092-.618-.417a.368.368,0,0,1,.386-.417c.308,0,.694-.048,1-.048,1.544-.277,2.123-1.485,2.818-3.485l8.879-24.859c.386-1.115.656-1.58,1-1.58.5,0,.656.37,1,1.255.811,2.183,6.486,18.355,8.647,24.35,1.313,3.577,2.277,4.09,2.9,4.228a6.866,6.866,0,0,0,1.273.14c.309,0,.463.139.463.417,0,.325-.192.417-1.467.417-1.2,0-3.667,0-6.523-.092-.617-.045-1-.045-1-.325,0-.233.078-.37.424-.417.232-.048.463-.418.309-.883l-2.625-7.947c-.077-.232-.194-.277-.348-.277Zm7.257-2.185c.155,0,.193-.092.155-.232l-3.2-10.037c-.038-.14-.076-.373-.154-.373-.116,0-.155.233-.193.373l-3.281,9.99c-.077.188,0,.28.116.28Z" transform="translate(-249.652 -240.554)" fill="#004e9c" stroke="rgba(0,0,0,0)" stroke-width="1"/>
          <path id="Path_26" data-name="Path 26" d="M354.358,337.569c-.193,0-.231.045-.309.277l-1.814,5.3a8.414,8.414,0,0,0-.5,2.418c0,.7.309,1.115,1.351,1.115h.5c.425,0,.5.184.5.417,0,.325-.193.417-.54.417-1.12,0-2.7-.138-3.783-.138-.348,0-2.161.138-3.937.138-.424,0-.618-.092-.618-.417a.368.368,0,0,1,.386-.417c.308,0,.694-.048,1-.048,1.544-.277,2.123-1.485,2.818-3.485l8.879-24.859c.386-1.115.656-1.58,1-1.58.5,0,.656.37,1,1.255.811,2.183,6.486,18.355,8.647,24.35,1.313,3.577,2.277,4.09,2.9,4.228a6.866,6.866,0,0,0,1.273.14c.309,0,.463.139.463.417,0,.325-.192.417-1.467.417-1.2,0-3.667,0-6.523-.092-.617-.045-1-.045-1-.325,0-.233.078-.37.424-.417.232-.048.463-.418.309-.883l-2.625-7.947c-.077-.232-.194-.277-.348-.277Zm7.257-2.185c.155,0,.193-.092.155-.232l-3.2-10.037c-.038-.14-.076-.373-.154-.373-.116,0-.155.233-.193.373l-3.281,9.99c-.077.188,0,.28.116.28Z" transform="translate(-249.652 -240.554)" fill="none" stroke="#004e9c" stroke-miterlimit="10" stroke-width="1"/>
          <path id="Path_27" data-name="Path 27" d="M429.048,329.714c0,5.948,0,9.154.813,9.99.657.7,1.659,1.025,4.669,1.025,2.047,0,3.552-.048,4.516-1.3a6.468,6.468,0,0,0,1-2.79c.038-.417.116-.7.426-.7.268,0,.308.232.308.79a43.792,43.792,0,0,1-.579,5.344c-.233,1.02-.426,1.253-2.432,1.253-2.779,0-4.787-.093-6.523-.14-1.737-.092-3.126-.138-4.708-.138-.426,0-1.274,0-2.2.045-.888,0-1.891.092-2.664.092-.5,0-.772-.138-.772-.462,0-.233.154-.372.617-.372a5.309,5.309,0,0,0,1.389-.185c.772-.187.965-1.21,1.12-2.558.193-1.952.193-5.622.193-9.9v-8.177c0-7.065,0-8.365-.077-9.852-.077-1.58-.386-2.322-1.66-2.65a4.821,4.821,0,0,0-1.273-.138c-.426,0-.657-.095-.657-.42s.271-.418.849-.418c1.815,0,4.246.14,5.289.14.926,0,3.745-.14,5.249-.14.54,0,.811.092.811.418s-.233.42-.694.42a8.593,8.593,0,0,0-1.506.138c-1.043.232-1.352,1.022-1.43,2.65-.078,1.488-.078,2.788-.078,9.852Z" transform="translate(-287.326 -236.231)" fill="#004e9c" stroke="rgba(0,0,0,0)" stroke-width="1"/>
          <path id="Path_28" data-name="Path 28" d="M429.048,329.714c0,5.948,0,9.154.813,9.99.657.7,1.659,1.025,4.669,1.025,2.047,0,3.552-.048,4.516-1.3a6.468,6.468,0,0,0,1-2.79c.038-.417.116-.7.426-.7.268,0,.308.232.308.79a43.792,43.792,0,0,1-.579,5.344c-.233,1.02-.426,1.253-2.432,1.253-2.779,0-4.787-.093-6.523-.14-1.737-.092-3.126-.138-4.708-.138-.426,0-1.274,0-2.2.045-.888,0-1.891.092-2.664.092-.5,0-.772-.138-.772-.462,0-.233.154-.372.617-.372a5.309,5.309,0,0,0,1.389-.185c.772-.187.965-1.21,1.12-2.558.193-1.952.193-5.622.193-9.9v-8.177c0-7.065,0-8.365-.077-9.852-.077-1.58-.386-2.322-1.66-2.65a4.821,4.821,0,0,0-1.273-.138c-.426,0-.657-.095-.657-.42s.271-.418.849-.418c1.815,0,4.246.14,5.289.14.926,0,3.745-.14,5.249-.14.54,0,.811.092.811.418s-.233.42-.694.42a8.593,8.593,0,0,0-1.506.138c-1.043.232-1.352,1.022-1.43,2.65-.078,1.488-.078,2.788-.078,9.852Z" transform="translate(-287.326 -236.231)" fill="none" stroke="#004e9c" stroke-miterlimit="10" stroke-width="1"/>
          <path id="Path_29" data-name="Path 29" d="M466.532,329.665c0-5.995,0-7.11-.038-8.365-.078-1.347-.387-1.765-1.468-2.137a5.274,5.274,0,0,0-1.351-.137c-.346,0-.578-.141-.578-.42s.271-.37.772-.37c1.775,0,3.936.092,4.9.092,1.079,0,8.606.044,9.264,0a12.563,12.563,0,0,0,1.428-.233c.192-.048.385-.187.54-.187.193,0,.232.188.232.373a21.026,21.026,0,0,0-.271,2.555c-.038.42-.116,2.14-.193,2.6-.039.188-.116.653-.384.653-.233,0-.271-.187-.271-.513a4.4,4.4,0,0,0-.233-1.44c-.268-.7-.539-1.255-2.24-1.44-.578-.1-4.632-.187-5.326-.187-.154,0-.23.14-.23.372v9.758c0,.235.038.42.23.42.772,0,5.174,0,5.946-.092.81-.093,1.312-.187,1.62-.605.271-.28.387-.512.542-.512s.268.188.268.42-.076.883-.268,2.88c-.078.79-.154,2.37-.154,2.65,0,.325-.039.883-.349.883-.23,0-.307-.14-.307-.325-.04-.418-.04-.93-.116-1.44a1.87,1.87,0,0,0-1.893-1.535c-.617-.092-4.478-.185-5.326-.185-.154,0-.192.185-.192.417v3.16c0,1.347-.039,4.695,0,5.854.076,2.7,1.118,3.3,4.593,3.3a7.72,7.72,0,0,0,3.2-.513c.849-.462,1.236-1.3,1.469-2.927.076-.417.152-.6.385-.6.271,0,.31.51.31.927a31.752,31.752,0,0,1-.465,4.37c-.23,1.022-.539,1.022-1.812,1.022-2.548,0-4.594-.048-6.254-.14-1.66-.048-2.933-.093-3.938-.093-.387,0-1.12.045-1.931.045-.81.048-1.658.092-2.354.092-.423,0-.656-.138-.656-.417,0-.185.117-.418.542-.418a4.2,4.2,0,0,0,1.2-.14c.7-.185.888-.93,1.005-2.09.154-1.672.154-4.787.154-8.412Z" transform="translate(-308.595 -241.156)" fill="#004e9c" stroke="rgba(0,0,0,0)" stroke-width="1"/>
          <path id="Path_30" data-name="Path 30" d="M466.532,329.665c0-5.995,0-7.11-.038-8.365-.078-1.347-.387-1.765-1.468-2.137a5.274,5.274,0,0,0-1.351-.137c-.346,0-.578-.141-.578-.42s.271-.37.772-.37c1.775,0,3.936.092,4.9.092,1.079,0,8.606.044,9.264,0a12.563,12.563,0,0,0,1.428-.233c.192-.048.385-.187.54-.187.193,0,.232.188.232.373a21.026,21.026,0,0,0-.271,2.555c-.038.42-.116,2.14-.193,2.6-.039.188-.116.653-.384.653-.233,0-.271-.187-.271-.513a4.4,4.4,0,0,0-.233-1.44c-.268-.7-.539-1.255-2.24-1.44-.578-.1-4.632-.187-5.326-.187-.154,0-.23.14-.23.372v9.758c0,.235.038.42.23.42.772,0,5.174,0,5.946-.092.81-.093,1.312-.187,1.62-.605.271-.28.387-.512.542-.512s.268.188.268.42-.076.883-.268,2.88c-.078.79-.154,2.37-.154,2.65,0,.325-.039.883-.349.883-.23,0-.307-.14-.307-.325-.04-.418-.04-.93-.116-1.44a1.87,1.87,0,0,0-1.893-1.535c-.617-.092-4.478-.185-5.326-.185-.154,0-.192.185-.192.417v3.16c0,1.347-.039,4.695,0,5.854.076,2.7,1.118,3.3,4.593,3.3a7.72,7.72,0,0,0,3.2-.513c.849-.462,1.236-1.3,1.469-2.927.076-.417.152-.6.385-.6.271,0,.31.51.31.927a31.752,31.752,0,0,1-.465,4.37c-.23,1.022-.539,1.022-1.812,1.022-2.548,0-4.594-.048-6.254-.14-1.66-.048-2.933-.093-3.938-.093-.387,0-1.12.045-1.931.045-.81.048-1.658.092-2.354.092-.423,0-.656-.138-.656-.417,0-.185.117-.418.542-.418a4.2,4.2,0,0,0,1.2-.14c.7-.185.888-.93,1.005-2.09.154-1.672.154-4.787.154-8.412Z" transform="translate(-308.595 -241.156)" fill="none" stroke="#004e9c" stroke-miterlimit="10" stroke-width="1"/>
          <path id="Path_31" data-name="Path 31" d="M503.935,332.919c0-6.738,3.938-15.475,14.243-15.475,8.57,0,13.9,5.717,13.9,14.777s-5.481,16.172-14.243,16.172c-9.882,0-13.9-8.457-13.9-15.474m23.084.745c0-8.738-4.364-14.127-9.844-14.127-3.782,0-8.224,2.417-8.224,12.174,0,8.133,3.86,14.544,10.269,14.544,2.394,0,7.8-1.347,7.8-12.592" transform="translate(-329.014 -240.924)" fill="#004e9c" stroke="rgba(0,0,0,0)" stroke-width="1"/>
          <path id="Path_32" data-name="Path 32" d="M503.935,332.919c0-6.738,3.938-15.475,14.243-15.475,8.57,0,13.9,5.717,13.9,14.777s-5.481,16.172-14.243,16.172C507.949,348.393,503.935,339.936,503.935,332.919Zm23.084.745c0-8.738-4.364-14.127-9.844-14.127-3.782,0-8.224,2.417-8.224,12.174,0,8.133,3.86,14.544,10.269,14.544C521.615,346.255,527.019,344.908,527.019,333.664Z" transform="translate(-329.014 -240.924)" fill="none" stroke="#004e9c" stroke-miterlimit="10" stroke-width="1"/>
          <path id="Path_33" data-name="Path 33" d="M567.935,342.355c.078,3.065.5,4,1.158,4.275a4.9,4.9,0,0,0,1.776.277c.384,0,.579.185.579.418,0,.325-.308.417-.772.417-2.2,0-3.784-.138-4.4-.138-.309,0-1.93.138-3.666.138-.465,0-.772-.045-.772-.417,0-.233.231-.418.539-.418a5.928,5.928,0,0,0,1.544-.185c.888-.28,1-1.348,1.043-4.788l.308-23.419c0-.79.231-1.348.578-1.348.426,0,.888.6,1.469,1.3.424.512,5.519,6.785,10.46,12.592,2.316,2.742,6.832,8.32,7.333,8.877h.156l-.346-17.567c-.04-2.415-.349-3.112-1.16-3.485a4.825,4.825,0,0,0-1.776-.23c-.423,0-.539-.187-.539-.42,0-.325.347-.37.849-.372,1.777,0,3.589.1,4.323.1.388,0,1.66-.1,3.321-.093.463,0,.772.045.772.37,0,.233-.193.42-.578.42a2.941,2.941,0,0,0-1.044.137c-.927.325-1.2,1.022-1.234,3.253l-.387,24.91c0,.882-.269,1.253-.54,1.253a1.922,1.922,0,0,1-1.39-.835c-2.123-2.37-6.37-7.25-9.921-11.385-3.706-4.274-7.3-9.062-7.953-9.759h-.116Z" transform="translate(-357.965 -240.786)" fill="#004e9c" stroke="rgba(0,0,0,0)" stroke-width="1"/>
          <path id="Path_34" data-name="Path 34" d="M567.935,342.355c.078,3.065.5,4,1.158,4.275a4.9,4.9,0,0,0,1.776.277c.384,0,.579.185.579.418,0,.325-.308.417-.772.417-2.2,0-3.784-.138-4.4-.138-.309,0-1.93.138-3.666.138-.465,0-.772-.045-.772-.417,0-.233.231-.418.539-.418a5.928,5.928,0,0,0,1.544-.185c.888-.28,1-1.348,1.043-4.788l.308-23.419c0-.79.231-1.348.578-1.348.426,0,.888.6,1.469,1.3.424.512,5.519,6.785,10.46,12.592,2.316,2.742,6.832,8.32,7.333,8.877h.156l-.346-17.567c-.04-2.415-.349-3.112-1.16-3.485a4.825,4.825,0,0,0-1.776-.23c-.423,0-.539-.187-.539-.42,0-.325.347-.37.849-.372,1.777,0,3.589.1,4.323.1.388,0,1.66-.1,3.321-.093.463,0,.772.045.772.37,0,.233-.193.42-.578.42a2.941,2.941,0,0,0-1.044.137c-.927.325-1.2,1.022-1.234,3.253l-.387,24.91c0,.882-.269,1.253-.54,1.253a1.922,1.922,0,0,1-1.39-.835c-2.123-2.37-6.37-7.25-9.921-11.385-3.706-4.274-7.3-9.062-7.953-9.759h-.116Z" transform="translate(-357.965 -240.786)" fill="none" stroke="#004e9c" stroke-miterlimit="10" stroke-width="1"/>
          <path id="Path_35" data-name="Path 35" d="M625.41,337.569c-.193,0-.231.045-.309.277l-1.812,5.3a8.335,8.335,0,0,0-.5,2.418c0,.7.307,1.115,1.35,1.115h.5c.427,0,.5.184.5.417,0,.325-.191.417-.54.417-1.118,0-2.7-.138-3.782-.138-.346,0-2.161.138-3.938.138-.423,0-.617-.092-.617-.417a.37.37,0,0,1,.388-.417c.308,0,.695-.048,1-.048,1.544-.277,2.123-1.485,2.819-3.485l8.878-24.859c.385-1.115.656-1.58,1-1.58.5,0,.656.37,1,1.255.811,2.183,6.486,18.355,8.647,24.35,1.313,3.577,2.278,4.09,2.9,4.228a6.9,6.9,0,0,0,1.275.14c.307,0,.462.139.462.417,0,.325-.193.417-1.466.417-1.2,0-3.668,0-6.526-.092-.617-.045-1-.045-1-.325,0-.233.078-.37.424-.417a.656.656,0,0,0,.31-.883l-2.625-7.947c-.078-.232-.194-.277-.346-.277Zm7.259-2.185c.153,0,.192-.092.153-.232l-3.2-10.037c-.038-.14-.077-.373-.155-.373-.116,0-.154.233-.193.373l-3.282,9.99c-.078.188,0,.28.116.28Z" transform="translate(-385.178 -240.554)" fill="#004e9c" stroke="rgba(0,0,0,0)" stroke-width="1"/>
          <path id="Path_36" data-name="Path 36" d="M625.41,337.569c-.193,0-.231.045-.309.277l-1.812,5.3a8.335,8.335,0,0,0-.5,2.418c0,.7.307,1.115,1.35,1.115h.5c.427,0,.5.184.5.417,0,.325-.191.417-.54.417-1.118,0-2.7-.138-3.782-.138-.346,0-2.161.138-3.938.138-.423,0-.617-.092-.617-.417a.37.37,0,0,1,.388-.417c.308,0,.695-.048,1-.048,1.544-.277,2.123-1.485,2.819-3.485l8.878-24.859c.385-1.115.656-1.58,1-1.58.5,0,.656.37,1,1.255.811,2.183,6.486,18.355,8.647,24.35,1.313,3.577,2.278,4.09,2.9,4.228a6.9,6.9,0,0,0,1.275.14c.307,0,.462.139.462.417,0,.325-.193.417-1.466.417-1.2,0-3.668,0-6.526-.092-.617-.045-1-.045-1-.325,0-.233.078-.37.424-.417a.656.656,0,0,0,.31-.883l-2.625-7.947c-.078-.232-.194-.277-.346-.277Zm7.259-2.185c.153,0,.192-.092.153-.232l-3.2-10.037c-.038-.14-.077-.373-.155-.373-.116,0-.154.233-.193.373l-3.282,9.99c-.078.188,0,.28.116.28Z" transform="translate(-385.178 -240.554)" fill="none" stroke="#004e9c" stroke-miterlimit="10" stroke-width="1"/>
        </g>
      </g>
      <g id="Group_4" data-name="Group 4" transform="translate(245.894 172.742)">
        <g id="Group_3" data-name="Group 3" transform="translate(0)" clip-path="url(#clip-path)">
          <rect id="Rectangle_2" data-name="Rectangle 2" width="30.042" height="50.087" transform="translate(-0.506 29.934) rotate(-89.876)" stroke="rgba(0,0,0,0)" stroke-width="1" fill="url(#linear-gradient)"/>
        </g>
      </g>
      <g id="Group_6" data-name="Group 6" transform="translate(168.057 167.585)">
        <g id="Group_11" data-name="Group 11" transform="translate(0 0)">
          <path id="Path_38" data-name="Path 38" d="M384.73,203.379s15.6-12.723,23.2-23.862c0,0,6.747-8.839,11.156-8.654,0,0,5.73-1.521,12.96,7.547,0,0,20.343,27.849,30.5,27.119l3.031-.233s-21.549,11.82-44.422,8.337c0,0-9.4.406-25.023-4.336,0,0-11.943-3.626-14.375-3.712Z" transform="translate(-281.885 -170.767)" fill="#45a735" stroke="rgba(0,0,0,0)" stroke-width="1"/>
          <path id="Path_39" data-name="Path 39" d="M384.73,203.379s15.6-12.723,23.2-23.862c0,0,6.747-8.839,11.156-8.654,0,0,5.73-1.521,12.96,7.547,0,0,20.343,27.849,30.5,27.119l3.031-.233s-21.549,11.82-44.422,8.337c0,0-9.4.406-25.023-4.336,0,0-11.943-3.626-14.375-3.712Z" transform="translate(-281.885 -170.767)" fill="none" stroke="#45a735" stroke-miterlimit="10" stroke-width="1"/>
          <path id="Path_40" data-name="Path 40" d="M183.284,398.732c0-2.34,0-2.759-.029-3.24-.029-.51-.146-.75-.625-.855a2.64,2.64,0,0,0-.495-.045c-.059,0-.117-.031-.117-.09,0-.09.073-.12.232-.12.655,0,1.571.045,1.643.045.349,0,.916-.045,1.585-.045,2.385,0,2.909,1.5,2.909,2.25a3.812,3.812,0,0,1-1.368,2.7,3.475,3.475,0,0,1,2.516,3.165c0,1.6-1.221,3.27-3.708,3.27-.161,0-.626-.03-1.047-.044-.421-.03-.829-.045-.887-.045-.029,0-.277,0-.582.015-.291,0-.625.03-.843.03-.16,0-.233-.03-.233-.121,0-.044.029-.089.116-.089a2.185,2.185,0,0,0,.437-.06c.29-.061.363-.39.421-.825.072-.63.072-1.815.072-3.255Zm1.164.33c0,.1.029.135.1.165a4.909,4.909,0,0,0,.887.061c.814,0,1.018-.03,1.324-.391a2.363,2.363,0,0,0,.523-1.514c0-1.245-.538-2.58-1.964-2.58a3.148,3.148,0,0,0-.7.075c-.131.03-.174.075-.174.164Zm0,1.59c0,1.155,0,3.015.014,3.24.043.736.043.945.494,1.171a3.322,3.322,0,0,0,1.279.225,1.967,1.967,0,0,0,2.051-2.13,3.639,3.639,0,0,0-1.411-3,2.348,2.348,0,0,0-1.207-.435c-.188-.03-.916-.03-1.133-.03-.059,0-.087.03-.087.1Z" transform="translate(-182.019 -282.575)" fill="#00a1ed" stroke="rgba(0,0,0,0)" stroke-width="1"/>
          <path id="Path_41" data-name="Path 41" d="M183.284,398.732c0-2.34,0-2.759-.029-3.24-.029-.51-.146-.75-.625-.855a2.64,2.64,0,0,0-.495-.045c-.059,0-.117-.031-.117-.09,0-.09.073-.12.232-.12.655,0,1.571.045,1.643.045.349,0,.916-.045,1.585-.045,2.385,0,2.909,1.5,2.909,2.25a3.812,3.812,0,0,1-1.368,2.7,3.475,3.475,0,0,1,2.516,3.165c0,1.6-1.221,3.27-3.708,3.27-.161,0-.626-.03-1.047-.044-.421-.03-.829-.045-.887-.045-.029,0-.277,0-.582.015-.291,0-.625.03-.843.03-.16,0-.233-.03-.233-.121,0-.044.029-.089.116-.089a2.185,2.185,0,0,0,.437-.06c.29-.061.363-.39.421-.825.072-.63.072-1.815.072-3.255Zm1.164.33c0,.1.029.135.1.165a4.909,4.909,0,0,0,.887.061c.814,0,1.018-.03,1.324-.391a2.363,2.363,0,0,0,.523-1.514c0-1.245-.538-2.58-1.964-2.58a3.148,3.148,0,0,0-.7.075c-.131.03-.174.075-.174.164Zm0,1.59c0,1.155,0,3.015.014,3.24.043.736.043.945.494,1.171a3.322,3.322,0,0,0,1.279.225,1.967,1.967,0,0,0,2.051-2.13,3.639,3.639,0,0,0-1.411-3,2.348,2.348,0,0,0-1.207-.435c-.188-.03-.916-.03-1.133-.03-.059,0-.087.03-.087.1Z" transform="translate(-182.019 -282.575)" fill="none" stroke="#00a1ed" stroke-miterlimit="10" stroke-width="0.5"/>
          <path id="Path_42" data-name="Path 42" d="M202.3,401.358c0-1.98,0-2.34-.029-2.745-.029-.435-.1-.645-.523-.7a4,4,0,0,0-.436-.03.125.125,0,0,1-.1-.1c0-.075.058-.105.2-.105.582,0,1.411.03,1.483.03s2.763.015,3.054,0a5.8,5.8,0,0,0,.581-.075c.059-.015.117-.06.175-.06.043,0,.058.06.058.12,0,.09-.073.24-.1.6-.014.12-.044.69-.073.84-.014.06-.059.135-.116.135s-.1-.06-.1-.165a1.445,1.445,0,0,0-.073-.45c-.088-.21-.218-.3-.916-.39-.219-.03-1.7-.045-1.847-.045-.058,0-.073.045-.073.135v3.465c0,.091,0,.135.073.135.16,0,1.847,0,2.138-.031s.494-.044.625-.179c.087-.091.145-.165.189-.165s.072.029.072.1-.072.285-.1.705c-.029.255-.058.735-.058.825,0,.1-.029.24-.117.24-.058,0-.088-.045-.088-.12a1.167,1.167,0,0,0-.058-.42c-.044-.181-.16-.33-.655-.39-.349-.045-1.715-.06-1.934-.06-.073,0-.087.045-.087.09v1.065c0,.434-.014,1.92,0,2.175.029.855.262,1.02,1.526,1.02a4.123,4.123,0,0,0,1.28-.135.966.966,0,0,0,.582-.884c.029-.15.059-.2.131-.2s.088.105.088.2a10.847,10.847,0,0,1-.175,1.23c-.087.33-.218.33-.712.33-.96,0-1.7-.03-2.225-.046s-.872-.03-1.061-.03c-.029,0-.276,0-.552.016-.247.014-.538.03-.742.03-.131,0-.2-.03-.2-.105a.1.1,0,0,1,.1-.105,3.553,3.553,0,0,0,.393-.06c.247-.045.276-.3.334-.674a26.738,26.738,0,0,0,.073-2.76Z" transform="translate(-191.615 -284.165)" fill="#00a1ed" stroke="rgba(0,0,0,0)" stroke-width="1"/>
          <path id="Path_43" data-name="Path 43" d="M202.3,401.358c0-1.98,0-2.34-.029-2.745-.029-.435-.1-.645-.523-.7a4,4,0,0,0-.436-.03.125.125,0,0,1-.1-.1c0-.075.058-.105.2-.105.582,0,1.411.03,1.483.03s2.763.015,3.054,0a5.8,5.8,0,0,0,.581-.075c.059-.015.117-.06.175-.06.043,0,.058.06.058.12,0,.09-.073.24-.1.6-.014.12-.044.69-.073.84-.014.06-.059.135-.116.135s-.1-.06-.1-.165a1.445,1.445,0,0,0-.073-.45c-.088-.21-.218-.3-.916-.39-.219-.03-1.7-.045-1.847-.045-.058,0-.073.045-.073.135v3.465c0,.091,0,.135.073.135.16,0,1.847,0,2.138-.031s.494-.044.625-.179c.087-.091.145-.165.189-.165s.072.029.072.1-.072.285-.1.705c-.029.255-.058.735-.058.825,0,.1-.029.24-.117.24-.058,0-.088-.045-.088-.12a1.167,1.167,0,0,0-.058-.42c-.044-.181-.16-.33-.655-.39-.349-.045-1.715-.06-1.934-.06-.073,0-.087.045-.087.09v1.065c0,.434-.014,1.92,0,2.175.029.855.262,1.02,1.526,1.02a4.123,4.123,0,0,0,1.28-.135.966.966,0,0,0,.582-.884c.029-.15.059-.2.131-.2s.088.105.088.2a10.847,10.847,0,0,1-.175,1.23c-.087.33-.218.33-.712.33-.96,0-1.7-.03-2.225-.046s-.872-.03-1.061-.03c-.029,0-.276,0-.552.016-.247.014-.538.03-.742.03-.131,0-.2-.03-.2-.105a.1.1,0,0,1,.1-.105,3.553,3.553,0,0,0,.393-.06c.247-.045.276-.3.334-.674a26.738,26.738,0,0,0,.073-2.76Z" transform="translate(-191.615 -284.165)" fill="none" stroke="#00a1ed" stroke-miterlimit="10" stroke-width="0.5"/>
          <path id="Path_44" data-name="Path 44" d="M218.733,397.789c.16-.42.218-.495.3-.495.131,0,.174.18.306.464.232.54,2.283,5.805,3.068,7.74.465,1.139.814,1.3,1.091,1.395a1.741,1.741,0,0,0,.509.075c.073,0,.16.03.16.1s-.145.105-.291.105c-.189,0-1.134,0-2.021-.03-.247-.016-.451-.016-.451-.091,0-.059.029-.059.087-.09a.241.241,0,0,0,.117-.345l-1.148-2.926c-.03-.06-.044-.074-.117-.074h-2.952c-.058,0-.1.03-.131.105l-.727,2.04a2.7,2.7,0,0,0-.189.855c0,.255.218.345.436.345h.117c.1,0,.131.045.131.1,0,.076-.072.105-.189.105-.306,0-1-.045-1.149-.045s-.77.045-1.294.045c-.16,0-.248-.03-.248-.105a.114.114,0,0,1,.117-.1,3.586,3.586,0,0,0,.378-.03c.582-.076.829-.525,1.076-1.17Zm1.425,5.31c.058,0,.058-.031.044-.091l-1.265-3.495q-.109-.293-.218,0l-1.193,3.495c-.014.06,0,.091.043.091Z" transform="translate(-198.085 -284.03)" fill="#00a1ed" stroke="rgba(0,0,0,0)" stroke-width="1"/>
          <path id="Path_45" data-name="Path 45" d="M218.733,397.789c.16-.42.218-.495.3-.495.131,0,.174.18.306.464.232.54,2.283,5.805,3.068,7.74.465,1.139.814,1.3,1.091,1.395a1.741,1.741,0,0,0,.509.075c.073,0,.16.03.16.1s-.145.105-.291.105c-.189,0-1.134,0-2.021-.03-.247-.016-.451-.016-.451-.091,0-.059.029-.059.087-.09a.241.241,0,0,0,.117-.345l-1.148-2.926c-.03-.06-.044-.074-.117-.074h-2.952c-.058,0-.1.03-.131.105l-.727,2.04a2.7,2.7,0,0,0-.189.855c0,.255.218.345.436.345h.117c.1,0,.131.045.131.1,0,.076-.072.105-.189.105-.306,0-1-.045-1.149-.045s-.77.045-1.294.045c-.16,0-.248-.03-.248-.105a.114.114,0,0,1,.117-.1,3.586,3.586,0,0,0,.378-.03c.582-.076.829-.525,1.076-1.17Zm1.425,5.31c.058,0,.058-.031.044-.091l-1.265-3.495q-.109-.293-.218,0l-1.193,3.495c-.014.06,0,.091.043.091Z" transform="translate(-198.085 -284.03)" fill="none" stroke="#00a1ed" stroke-miterlimit="10" stroke-width="0.5"/>
          <path id="Path_46" data-name="Path 46" d="M236.211,406.038a4.86,4.86,0,0,1-1.556-3.78,5.119,5.119,0,0,1,1.44-3.48,5.182,5.182,0,0,1,3.9-1.365,12.182,12.182,0,0,1,1.861.15,8.964,8.964,0,0,0,1.309.195c.131,0,.16.06.16.135,0,.105-.029.255-.059.72-.014.42-.014,1.125-.029,1.305s-.072.27-.146.27-.1-.09-.1-.27a1.686,1.686,0,0,0-.538-1.275,4.075,4.075,0,0,0-2.516-.7,3.859,3.859,0,0,0-2.879.885,4.242,4.242,0,0,0-1.149,3.33,4.562,4.562,0,0,0,4.61,4.62,2.647,2.647,0,0,0,2.108-.6,2.408,2.408,0,0,0,.494-1.065c.029-.135.044-.181.131-.181.059,0,.117.091.117.181a13.746,13.746,0,0,1-.306,1.634c-.072.241-.1.285-.319.375a7.352,7.352,0,0,1-2.312.285,5.912,5.912,0,0,1-4.217-1.365" transform="translate(-208.337 -284.09)" fill="#00a1ed" stroke="rgba(0,0,0,0)" stroke-width="1"/>
          <path id="Path_47" data-name="Path 47" d="M236.211,406.038a4.86,4.86,0,0,1-1.556-3.78,5.119,5.119,0,0,1,1.44-3.48,5.182,5.182,0,0,1,3.9-1.365,12.182,12.182,0,0,1,1.861.15,8.964,8.964,0,0,0,1.309.195c.131,0,.16.06.16.135,0,.105-.029.255-.059.72-.014.42-.014,1.125-.029,1.305s-.072.27-.146.27-.1-.09-.1-.27a1.686,1.686,0,0,0-.538-1.275,4.075,4.075,0,0,0-2.516-.7,3.859,3.859,0,0,0-2.879.885,4.242,4.242,0,0,0-1.149,3.33,4.562,4.562,0,0,0,4.61,4.62,2.647,2.647,0,0,0,2.108-.6,2.408,2.408,0,0,0,.494-1.065c.029-.135.044-.181.131-.181.059,0,.117.091.117.181a13.746,13.746,0,0,1-.306,1.634c-.072.241-.1.285-.319.375a7.352,7.352,0,0,1-2.312.285A5.912,5.912,0,0,1,236.211,406.038Z" transform="translate(-208.337 -284.09)" fill="none" stroke="#00a1ed" stroke-miterlimit="10" stroke-width="0.5"/>
          <path id="Path_48" data-name="Path 48" d="M264.87,403.713c0,1.23.014,2.235.073,2.76.044.375.073.615.465.674a4.744,4.744,0,0,0,.567.06.1.1,0,0,1,.116.1c0,.06-.072.105-.218.105-.7,0-1.513-.045-1.585-.045s-.888.045-1.265.045c-.146,0-.2-.03-.2-.105a.1.1,0,0,1,.1-.1,1.635,1.635,0,0,0,.378-.06c.262-.06.306-.315.349-.69.058-.525.058-1.484.058-2.715v-1.275c0-.06-.03-.076-.073-.076H258.3c-.044,0-.072.016-.072.076v1.275c0,1.23,0,2.2.058,2.73.044.375.087.615.466.674a4.946,4.946,0,0,0,.581.06.1.1,0,0,1,.1.1c0,.06-.058.105-.2.105-.713,0-1.527-.045-1.585-.045-.073,0-.888.045-1.28.045-.13,0-.2-.03-.2-.105a.1.1,0,0,1,.1-.1,1.749,1.749,0,0,0,.392-.06c.247-.06.277-.3.335-.674a27.106,27.106,0,0,0,.072-2.76v-2.25c0-1.98,0-2.34-.029-2.745-.03-.435-.1-.645-.523-.705a4,4,0,0,0-.436-.03.125.125,0,0,1-.1-.105c0-.075.058-.1.2-.1.581,0,1.4.03,1.469.03.058,0,.872-.03,1.265-.03.146,0,.2.03.2.1a.125.125,0,0,1-.1.105,1.383,1.383,0,0,0-.32.03c-.349.075-.422.255-.451.705-.014.4-.014.795-.014,2.775v.27c0,.075.029.075.072.075h5.337c.043,0,.073,0,.073-.075v-.27c0-1.98-.014-2.37-.03-2.775-.029-.435-.086-.645-.509-.705a3.959,3.959,0,0,0-.435-.03.112.112,0,0,1-.1-.105c0-.075.059-.1.2-.1.567,0,1.4.03,1.454.03s.887-.03,1.265-.03c.145,0,.218.03.218.1a.126.126,0,0,1-.116.105,1.445,1.445,0,0,0-.32.03c-.335.075-.407.255-.436.705-.029.4-.029.765-.029,2.745Z" transform="translate(-218.995 -284.27)" fill="#00a1ed" stroke="rgba(0,0,0,0)" stroke-width="1"/>
          <path id="Path_49" data-name="Path 49" d="M264.87,403.713c0,1.23.014,2.235.073,2.76.044.375.073.615.465.674a4.744,4.744,0,0,0,.567.06.1.1,0,0,1,.116.1c0,.06-.072.105-.218.105-.7,0-1.513-.045-1.585-.045s-.888.045-1.265.045c-.146,0-.2-.03-.2-.105a.1.1,0,0,1,.1-.1,1.635,1.635,0,0,0,.378-.06c.262-.06.306-.315.349-.69.058-.525.058-1.484.058-2.715v-1.275c0-.06-.03-.076-.073-.076H258.3c-.044,0-.072.016-.072.076v1.275c0,1.23,0,2.2.058,2.73.044.375.087.615.466.674a4.946,4.946,0,0,0,.581.06.1.1,0,0,1,.1.1c0,.06-.058.105-.2.105-.713,0-1.527-.045-1.585-.045-.073,0-.888.045-1.28.045-.13,0-.2-.03-.2-.105a.1.1,0,0,1,.1-.1,1.749,1.749,0,0,0,.392-.06c.247-.06.277-.3.335-.674a27.106,27.106,0,0,0,.072-2.76v-2.25c0-1.98,0-2.34-.029-2.745-.03-.435-.1-.645-.523-.705a4,4,0,0,0-.436-.03.125.125,0,0,1-.1-.105c0-.075.058-.1.2-.1.581,0,1.4.03,1.469.03.058,0,.872-.03,1.265-.03.146,0,.2.03.2.1a.125.125,0,0,1-.1.105,1.383,1.383,0,0,0-.32.03c-.349.075-.422.255-.451.705-.014.4-.014.795-.014,2.775v.27c0,.075.029.075.072.075h5.337c.043,0,.073,0,.073-.075v-.27c0-1.98-.014-2.37-.03-2.775-.029-.435-.086-.645-.509-.705a3.959,3.959,0,0,0-.435-.03.112.112,0,0,1-.1-.105c0-.075.059-.1.2-.1.567,0,1.4.03,1.454.03s.887-.03,1.265-.03c.145,0,.218.03.218.1a.126.126,0,0,1-.116.105,1.445,1.445,0,0,0-.32.03c-.335.075-.407.255-.436.705-.029.4-.029.765-.029,2.745Z" transform="translate(-218.995 -284.27)" fill="none" stroke="#00a1ed" stroke-miterlimit="10" stroke-width="0.5"/>
          <path id="Path_50" data-name="Path 50" d="M291.346,404.1a5.842,5.842,0,0,1-1.759-4.44,6.093,6.093,0,0,1,1.629-4.095,5.776,5.776,0,0,1,4.435-1.605,12.136,12.136,0,0,1,2.109.18,12.178,12.178,0,0,0,1.483.225c.16.015.189.076.189.165,0,.12-.044.3-.073.84-.029.5-.029,1.321-.044,1.545s-.043.315-.131.315-.117-.105-.117-.315a2.11,2.11,0,0,0-.61-1.53,4.739,4.739,0,0,0-2.909-.855,4.354,4.354,0,0,0-3.345,1.1,5.114,5.114,0,0,0-1.309,3.914,5.34,5.34,0,0,0,5.25,5.49,3.274,3.274,0,0,0,2.53-.75,2.9,2.9,0,0,0,.538-1.259c.029-.165.059-.225.146-.225s.1.105.1.225a16.109,16.109,0,0,1-.32,1.92c-.087.285-.116.315-.378.435a8.2,8.2,0,0,1-2.617.345,6.583,6.583,0,0,1-4.8-1.619" transform="translate(-235.803 -282.365)" fill="#00a1ed" stroke="rgba(0,0,0,0)" stroke-width="1"/>
          <path id="Path_51" data-name="Path 51" d="M291.346,404.1a5.842,5.842,0,0,1-1.759-4.44,6.093,6.093,0,0,1,1.629-4.095,5.776,5.776,0,0,1,4.435-1.605,12.136,12.136,0,0,1,2.109.18,12.178,12.178,0,0,0,1.483.225c.16.015.189.076.189.165,0,.12-.044.3-.073.84-.029.5-.029,1.321-.044,1.545s-.043.315-.131.315-.117-.105-.117-.315a2.11,2.11,0,0,0-.61-1.53,4.739,4.739,0,0,0-2.909-.855,4.354,4.354,0,0,0-3.345,1.1,5.114,5.114,0,0,0-1.309,3.914,5.34,5.34,0,0,0,5.25,5.49,3.274,3.274,0,0,0,2.53-.75,2.9,2.9,0,0,0,.538-1.259c.029-.165.059-.225.146-.225s.1.105.1.225a16.109,16.109,0,0,1-.32,1.92c-.087.285-.116.315-.378.435a8.2,8.2,0,0,1-2.617.345A6.583,6.583,0,0,1,291.346,404.1Z" transform="translate(-235.803 -282.365)" fill="none" stroke="#00a1ed" stroke-miterlimit="10" stroke-width="0.5"/>
          <path id="Path_52" data-name="Path 52" d="M315.716,403.742c0,1.875.029,2.64.262,2.865.2.21.7.3,1.7.3.669,0,1.236-.015,1.542-.39a1.585,1.585,0,0,0,.305-.72c.014-.09.058-.165.131-.165s.087.06.087.2a8.27,8.27,0,0,1-.189,1.275c-.087.3-.13.345-.814.345-.916,0-1.629-.015-2.225-.046-.581-.014-1.018-.03-1.4-.03-.058,0-.276,0-.523.015s-.538.03-.742.03c-.13,0-.2-.03-.2-.105a.1.1,0,0,1,.1-.1,1.78,1.78,0,0,0,.393-.06c.247-.061.276-.3.334-.675a26.923,26.923,0,0,0,.073-2.76v-2.25c0-1.98,0-2.34-.029-2.745-.029-.435-.1-.645-.523-.7a4.111,4.111,0,0,0-.436-.03.125.125,0,0,1-.1-.1c0-.076.058-.1.2-.1.582,0,1.382.029,1.454.029s1.018-.029,1.411-.029c.131,0,.2.029.2.1a.11.11,0,0,1-.1.09c-.088,0-.276.015-.422.03-.378.075-.451.27-.48.72-.014.405-.014.765-.014,2.745Z" transform="translate(-247.74 -284.27)" fill="#00a1ed" stroke="rgba(0,0,0,0)" stroke-width="1"/>
          <path id="Path_53" data-name="Path 53" d="M315.716,403.742c0,1.875.029,2.64.262,2.865.2.21.7.3,1.7.3.669,0,1.236-.015,1.542-.39a1.585,1.585,0,0,0,.305-.72c.014-.09.058-.165.131-.165s.087.06.087.2a8.27,8.27,0,0,1-.189,1.275c-.087.3-.13.345-.814.345-.916,0-1.629-.015-2.225-.046-.581-.014-1.018-.03-1.4-.03-.058,0-.276,0-.523.015s-.538.03-.742.03c-.13,0-.2-.03-.2-.105a.1.1,0,0,1,.1-.1,1.78,1.78,0,0,0,.393-.06c.247-.061.276-.3.334-.675a26.923,26.923,0,0,0,.073-2.76v-2.25c0-1.98,0-2.34-.029-2.745-.029-.435-.1-.645-.523-.7a4.111,4.111,0,0,0-.436-.03.125.125,0,0,1-.1-.1c0-.076.058-.1.2-.1.582,0,1.382.029,1.454.029s1.018-.029,1.411-.029c.131,0,.2.029.2.1a.11.11,0,0,1-.1.09c-.088,0-.276.015-.422.03-.378.075-.451.27-.48.72-.014.405-.014.765-.014,2.745Z" transform="translate(-247.74 -284.27)" fill="none" stroke="#00a1ed" stroke-miterlimit="10" stroke-width="0.5"/>
          <path id="Path_54" data-name="Path 54" d="M328.657,401.463c0-1.98,0-2.34-.029-2.745s-.1-.645-.523-.705a4,4,0,0,0-.436-.03.125.125,0,0,1-.1-.105c0-.075.058-.1.2-.1.581,0,1.352.03,1.469.03s.916-.03,1.294-.03c.146,0,.219.03.219.1a.126.126,0,0,1-.116.105,1.452,1.452,0,0,0-.32.03c-.335.06-.407.285-.436.705-.029.4-.029.765-.029,2.745v1.784c0,1.846.393,2.61.945,3.121a2.448,2.448,0,0,0,1.905.689,2.591,2.591,0,0,0,1.978-.9,4.817,4.817,0,0,0,.727-3.09v-1.6c0-1.98-.015-2.34-.029-2.745s-.087-.645-.509-.705a3.977,3.977,0,0,0-.436-.03.111.111,0,0,1-.1-.105c0-.075.058-.1.2-.1.567,0,1.309.03,1.382.03s.7-.03,1.076-.03c.146,0,.2.03.2.1a.111.111,0,0,1-.1.105,1.446,1.446,0,0,0-.32.03c-.349.075-.422.285-.451.705-.029.4-.014.765-.014,2.745v1.365c0,1.38-.174,2.925-1.192,3.825a3.794,3.794,0,0,1-2.676.93,3.906,3.906,0,0,1-2.661-.9,4.192,4.192,0,0,1-1.12-3.344Z" transform="translate(-254.793 -284.27)" fill="#00a1ed" stroke="rgba(0,0,0,0)" stroke-width="1"/>
          <path id="Path_55" data-name="Path 55" d="M328.657,401.463c0-1.98,0-2.34-.029-2.745s-.1-.645-.523-.705a4,4,0,0,0-.436-.03.125.125,0,0,1-.1-.105c0-.075.058-.1.2-.1.581,0,1.352.03,1.469.03s.916-.03,1.294-.03c.146,0,.219.03.219.1a.126.126,0,0,1-.116.105,1.452,1.452,0,0,0-.32.03c-.335.06-.407.285-.436.705-.029.4-.029.765-.029,2.745v1.784c0,1.846.393,2.61.945,3.121a2.448,2.448,0,0,0,1.905.689,2.591,2.591,0,0,0,1.978-.9,4.817,4.817,0,0,0,.727-3.09v-1.6c0-1.98-.015-2.34-.029-2.745s-.087-.645-.509-.705a3.977,3.977,0,0,0-.436-.03.111.111,0,0,1-.1-.105c0-.075.058-.1.2-.1.567,0,1.309.03,1.382.03s.7-.03,1.076-.03c.146,0,.2.03.2.1a.111.111,0,0,1-.1.105,1.446,1.446,0,0,0-.32.03c-.349.075-.422.285-.451.705-.029.4-.014.765-.014,2.745v1.365c0,1.38-.174,2.925-1.192,3.825a3.794,3.794,0,0,1-2.676.93,3.906,3.906,0,0,1-2.661-.9,4.192,4.192,0,0,1-1.12-3.344Z" transform="translate(-254.793 -284.27)" fill="none" stroke="#00a1ed" stroke-miterlimit="10" stroke-width="0.5"/>
          <path id="Path_56" data-name="Path 56" d="M351.253,401.463c0-1.98,0-2.34-.029-2.746-.029-.435-.1-.674-.523-.734a3.886,3.886,0,0,0-.437-.03c-.043,0-.1-.03-.1-.075,0-.076.059-.1.2-.1.582,0,1.41.029,1.483.029.305,0,.9-.029,1.5-.029,2.138,0,2.69,1.275,2.69,1.949a3.034,3.034,0,0,1-1.294,2.236A3,3,0,0,1,357,404.612a2.884,2.884,0,0,1-3.214,2.835c-.233,0-.7-.015-1.105-.045s-.771-.03-.829-.03c-.029,0-.262.015-.523.015-.262.015-.567.03-.771.03-.131,0-.2-.03-.2-.105,0-.045.029-.075.1-.075a3.526,3.526,0,0,0,.392-.06c.247-.045.277-.33.335-.7a26.733,26.733,0,0,0,.073-2.759Zm1.1.27c0,.09.029.12.087.134a3.844,3.844,0,0,0,.785.06c.712,0,.989-.029,1.25-.33a1.99,1.99,0,0,0,.495-1.365,1.853,1.853,0,0,0-1.8-2.056,3.678,3.678,0,0,0-.654.06c-.117.031-.16.061-.16.135Zm0,1.41c0,.99,0,2.52.015,2.715.044.615.044.765.436.96a2.974,2.974,0,0,0,1.12.18,1.717,1.717,0,0,0,1.876-1.965,2.817,2.817,0,0,0-1.221-2.325,2.648,2.648,0,0,0-1.149-.33c-.16-.03-.8-.03-1-.03-.044,0-.073.03-.073.09Z" transform="translate(-266.09 -284.27)" fill="#00a1ed" stroke="rgba(0,0,0,0)" stroke-width="1"/>
          <path id="Path_57" data-name="Path 57" d="M351.253,401.463c0-1.98,0-2.34-.029-2.746-.029-.435-.1-.674-.523-.734a3.886,3.886,0,0,0-.437-.03c-.043,0-.1-.03-.1-.075,0-.076.059-.1.2-.1.582,0,1.41.029,1.483.029.305,0,.9-.029,1.5-.029,2.138,0,2.69,1.275,2.69,1.949a3.034,3.034,0,0,1-1.294,2.236A3,3,0,0,1,357,404.612a2.884,2.884,0,0,1-3.214,2.835c-.233,0-.7-.015-1.105-.045s-.771-.03-.829-.03c-.029,0-.262.015-.523.015-.262.015-.567.03-.771.03-.131,0-.2-.03-.2-.105,0-.045.029-.075.1-.075a3.526,3.526,0,0,0,.392-.06c.247-.045.277-.33.335-.7a26.733,26.733,0,0,0,.073-2.759Zm1.1.27c0,.09.029.12.087.134a3.844,3.844,0,0,0,.785.06c.712,0,.989-.029,1.25-.33a1.99,1.99,0,0,0,.495-1.365,1.853,1.853,0,0,0-1.8-2.056,3.678,3.678,0,0,0-.654.06c-.117.031-.16.061-.16.135Zm0,1.41c0,.99,0,2.52.015,2.715.044.615.044.765.436.96a2.974,2.974,0,0,0,1.12.18,1.717,1.717,0,0,0,1.876-1.965,2.817,2.817,0,0,0-1.221-2.325,2.648,2.648,0,0,0-1.149-.33c-.16-.03-.8-.03-1-.03-.044,0-.073.03-.073.09Z" transform="translate(-266.09 -284.27)" fill="none" stroke="#00a1ed" stroke-miterlimit="10" stroke-width="0.5"/>
          <path id="Path_58" data-name="Path 58" d="M376.6,402.408a4.216,4.216,0,0,1,2.225-3.615,3.426,3.426,0,0,1-.712-2.069,3.041,3.041,0,0,1,3.127-2.76,3.687,3.687,0,0,1,1.759.375.346.346,0,0,1,.189.375,17.236,17.236,0,0,1-.1,1.724c-.044.225-.087.255-.146.255s-.087-.06-.087-.285a1.832,1.832,0,0,0-.451-1.275,1.977,1.977,0,0,0-1.454-.66,1.8,1.8,0,0,0-1.847,1.964c0,1.17.785,2.145,2.3,3.84.494.555,2.283,2.28,2.748,2.685a4.674,4.674,0,0,0,.742-2.49,1.041,1.041,0,0,0-.276-.736,1.006,1.006,0,0,0-.712-.24c-.087,0-.174-.029-.174-.1s.116-.105.233-.105a15.927,15.927,0,0,1,1.745.105.261.261,0,0,1,.261.3,6.67,6.67,0,0,1-1.439,3.54,12.77,12.77,0,0,0,2.006,1.485,3.906,3.906,0,0,0,1.731.585c.13,0,.2.015.2.105,0,.06-.117.105-.247.105h-1.425c-1.076,0-1.425-.105-3.025-1.41a4.825,4.825,0,0,1-3.635,1.62,3.366,3.366,0,0,1-3.534-3.315m6.791,1.41c-.815-.69-2.254-2.115-2.632-2.535a24.167,24.167,0,0,1-1.716-2.1,2.892,2.892,0,0,0-1.308,2.521,3.007,3.007,0,0,0,2.908,3.224,3.7,3.7,0,0,0,2.748-1.11" transform="translate(-279.308 -282.365)" fill="#00a1ed" stroke="rgba(0,0,0,0)" stroke-width="1"/>
          <path id="Path_59" data-name="Path 59" d="M376.6,402.408a4.216,4.216,0,0,1,2.225-3.615,3.426,3.426,0,0,1-.712-2.069,3.041,3.041,0,0,1,3.127-2.76,3.687,3.687,0,0,1,1.759.375.346.346,0,0,1,.189.375,17.236,17.236,0,0,1-.1,1.724c-.044.225-.087.255-.146.255s-.087-.06-.087-.285a1.832,1.832,0,0,0-.451-1.275,1.977,1.977,0,0,0-1.454-.66,1.8,1.8,0,0,0-1.847,1.964c0,1.17.785,2.145,2.3,3.84.494.555,2.283,2.28,2.748,2.685a4.674,4.674,0,0,0,.742-2.49,1.041,1.041,0,0,0-.276-.736,1.006,1.006,0,0,0-.712-.24c-.087,0-.174-.029-.174-.1s.116-.105.233-.105a15.927,15.927,0,0,1,1.745.105.261.261,0,0,1,.261.3,6.67,6.67,0,0,1-1.439,3.54,12.77,12.77,0,0,0,2.006,1.485,3.906,3.906,0,0,0,1.731.585c.13,0,.2.015.2.105,0,.06-.117.105-.247.105h-1.425c-1.076,0-1.425-.105-3.025-1.41a4.825,4.825,0,0,1-3.635,1.62A3.366,3.366,0,0,1,376.6,402.408Zm6.791,1.41c-.815-.69-2.254-2.115-2.632-2.535a24.167,24.167,0,0,1-1.716-2.1,2.892,2.892,0,0,0-1.308,2.521,3.007,3.007,0,0,0,2.908,3.224A3.7,3.7,0,0,0,383.388,403.818Z" transform="translate(-279.308 -282.365)" fill="none" stroke="#00a1ed" stroke-miterlimit="10" stroke-width="0.5"/>
          <path id="Path_60" data-name="Path 60" d="M411.072,403.473c.029,1.23.174,1.62.567,1.74a3.1,3.1,0,0,0,.727.09c.073,0,.116.031.116.09,0,.09-.087.12-.261.12-.829,0-1.411-.045-1.542-.045s-.742.045-1.4.045c-.146,0-.233-.015-.233-.12,0-.06.043-.09.116-.09a2.03,2.03,0,0,0,.6-.09c.364-.1.436-.54.436-1.9l.014-8.6c0-.585.044-.75.16-.75s.363.331.509.48c.218.255,2.385,2.67,4.625,5.145,1.439,1.59,3.024,3.42,3.49,3.915l-.16-7.62c-.014-.975-.116-1.3-.567-1.425a3.8,3.8,0,0,0-.712-.075c-.1,0-.116-.045-.116-.1,0-.09.116-.105.29-.105.655,0,1.353.045,1.513.045s.639-.045,1.236-.045c.16,0,.262.015.262.105,0,.06-.058.1-.16.1a1.245,1.245,0,0,0-.349.045c-.48.105-.538.435-.538,1.335l-.029,8.789c0,.991-.029,1.065-.131,1.065s-.29-.165-1.061-.96c-.16-.15-2.254-2.355-3.8-4.065-1.687-1.874-3.33-3.764-3.8-4.3Z" transform="translate(-295.535 -282.365)" fill="#00a1ed" stroke="rgba(0,0,0,0)" stroke-width="1"/>
          <path id="Path_61" data-name="Path 61" d="M411.072,403.473c.029,1.23.174,1.62.567,1.74a3.1,3.1,0,0,0,.727.09c.073,0,.116.031.116.09,0,.09-.087.12-.261.12-.829,0-1.411-.045-1.542-.045s-.742.045-1.4.045c-.146,0-.233-.015-.233-.12,0-.06.043-.09.116-.09a2.03,2.03,0,0,0,.6-.09c.364-.1.436-.54.436-1.9l.014-8.6c0-.585.044-.75.16-.75s.363.331.509.48c.218.255,2.385,2.67,4.625,5.145,1.439,1.59,3.024,3.42,3.49,3.915l-.16-7.62c-.014-.975-.116-1.3-.567-1.425a3.8,3.8,0,0,0-.712-.075c-.1,0-.116-.045-.116-.1,0-.09.116-.105.29-.105.655,0,1.353.045,1.513.045s.639-.045,1.236-.045c.16,0,.262.015.262.105,0,.06-.058.1-.16.1a1.245,1.245,0,0,0-.349.045c-.48.105-.538.435-.538,1.335l-.029,8.789c0,.991-.029,1.065-.131,1.065s-.29-.165-1.061-.96c-.16-.15-2.254-2.355-3.8-4.065-1.687-1.874-3.33-3.764-3.8-4.3Z" transform="translate(-295.535 -282.365)" fill="none" stroke="#00a1ed" stroke-miterlimit="10" stroke-width="0.5"/>
          <path id="Path_62" data-name="Path 62" d="M438.5,397.789c.16-.42.218-.495.306-.495.13,0,.174.18.305.464.232.54,2.283,5.805,3.068,7.74.465,1.139.815,1.3,1.091,1.395a1.741,1.741,0,0,0,.509.075c.073,0,.16.03.16.1s-.146.105-.291.105c-.189,0-1.134,0-2.021-.03-.247-.016-.451-.016-.451-.091,0-.059.029-.059.087-.09a.241.241,0,0,0,.116-.345l-1.148-2.926c-.029-.06-.044-.074-.116-.074h-2.952a.135.135,0,0,0-.131.105l-.727,2.04a2.7,2.7,0,0,0-.189.855c0,.255.217.345.436.345h.116c.1,0,.131.045.131.1,0,.076-.073.105-.189.105-.305,0-1-.045-1.149-.045s-.771.045-1.294.045c-.16,0-.247-.03-.247-.105a.114.114,0,0,1,.116-.1,3.605,3.605,0,0,0,.378-.03c.582-.076.829-.525,1.076-1.17Zm1.425,5.31c.058,0,.058-.031.044-.091l-1.265-3.495q-.109-.293-.219,0l-1.193,3.495c-.015.06,0,.091.043.091Z" transform="translate(-307.967 -284.03)" fill="#00a1ed" stroke="rgba(0,0,0,0)" stroke-width="1"/>
          <path id="Path_63" data-name="Path 63" d="M438.5,397.789c.16-.42.218-.495.306-.495.13,0,.174.18.305.464.232.54,2.283,5.805,3.068,7.74.465,1.139.815,1.3,1.091,1.395a1.741,1.741,0,0,0,.509.075c.073,0,.16.03.16.1s-.146.105-.291.105c-.189,0-1.134,0-2.021-.03-.247-.016-.451-.016-.451-.091,0-.059.029-.059.087-.09a.241.241,0,0,0,.116-.345l-1.148-2.926c-.029-.06-.044-.074-.116-.074h-2.952a.135.135,0,0,0-.131.105l-.727,2.04a2.7,2.7,0,0,0-.189.855c0,.255.217.345.436.345h.116c.1,0,.131.045.131.1,0,.076-.073.105-.189.105-.305,0-1-.045-1.149-.045s-.771.045-1.294.045c-.16,0-.247-.03-.247-.105a.114.114,0,0,1,.116-.1,3.605,3.605,0,0,0,.378-.03c.582-.076.829-.525,1.076-1.17Zm1.425,5.31c.058,0,.058-.031.044-.091l-1.265-3.495q-.109-.293-.219,0l-1.193,3.495c-.015.06,0,.091.043.091Z" transform="translate(-307.967 -284.03)" fill="none" stroke="#00a1ed" stroke-miterlimit="10" stroke-width="0.5"/>
          <path id="Path_64" data-name="Path 64" d="M456.322,403.533c0,1.23,0,2.235.058,2.76.044.375.1.615.495.674a4.657,4.657,0,0,0,.582.06.092.092,0,0,1,.1.105c0,.06-.058.1-.2.1-.7,0-1.512-.045-1.585-.045s-.945.045-1.324.045c-.145,0-.2-.029-.2-.1a.089.089,0,0,1,.1-.09,1.657,1.657,0,0,0,.378-.061c.262-.06.335-.314.378-.689.058-.525.058-1.53.058-2.76v-5.355l-1.847.03c-.8.015-1.1.105-1.294.4a2.089,2.089,0,0,0-.2.405c-.029.1-.073.12-.131.12a.1.1,0,0,1-.087-.1c0-.135.261-1.275.276-1.38.029-.075.087-.24.13-.24a4.419,4.419,0,0,0,.568.15c.364.045.858.06,1,.06H458.4a6.249,6.249,0,0,0,.916-.06c.189-.03.305-.06.364-.06s.058.075.058.15c0,.391-.044,1.3-.044,1.455,0,.105-.058.165-.116.165s-.087-.045-.1-.225l-.015-.135c-.044-.39-.32-.675-1.542-.7l-1.6-.03Z" transform="translate(-316.807 -284.09)" fill="#00a1ed" stroke="rgba(0,0,0,0)" stroke-width="1"/>
          <path id="Path_65" data-name="Path 65" d="M456.322,403.533c0,1.23,0,2.235.058,2.76.044.375.1.615.495.674a4.657,4.657,0,0,0,.582.06.092.092,0,0,1,.1.105c0,.06-.058.1-.2.1-.7,0-1.512-.045-1.585-.045s-.945.045-1.324.045c-.145,0-.2-.029-.2-.1a.089.089,0,0,1,.1-.09,1.657,1.657,0,0,0,.378-.061c.262-.06.335-.314.378-.689.058-.525.058-1.53.058-2.76v-5.355l-1.847.03c-.8.015-1.1.105-1.294.4a2.089,2.089,0,0,0-.2.405c-.029.1-.073.12-.131.12a.1.1,0,0,1-.087-.1c0-.135.261-1.275.276-1.38.029-.075.087-.24.13-.24a4.419,4.419,0,0,0,.568.15c.364.045.858.06,1,.06H458.4a6.249,6.249,0,0,0,.916-.06c.189-.03.305-.06.364-.06s.058.075.058.15c0,.391-.044,1.3-.044,1.455,0,.105-.058.165-.116.165s-.087-.045-.1-.225l-.015-.135c-.044-.39-.32-.675-1.542-.7l-1.6-.03Z" transform="translate(-316.807 -284.09)" fill="none" stroke="#00a1ed" stroke-miterlimit="10" stroke-width="0.5"/>
          <path id="Path_66" data-name="Path 66" d="M470.8,401.463c0-1.98,0-2.34-.03-2.745s-.1-.645-.523-.705a4,4,0,0,0-.436-.03.126.126,0,0,1-.1-.105c0-.075.059-.1.2-.1.582,0,1.352.03,1.469.03s.916-.03,1.294-.03c.146,0,.217.03.217.1a.126.126,0,0,1-.116.105,1.452,1.452,0,0,0-.32.03c-.335.06-.407.285-.436.705-.029.4-.029.765-.029,2.745v1.784c0,1.846.393,2.61.945,3.121a2.448,2.448,0,0,0,1.905.689,2.59,2.59,0,0,0,1.977-.9,4.817,4.817,0,0,0,.727-3.09v-1.6c0-1.98-.014-2.34-.029-2.745s-.087-.645-.509-.705a4,4,0,0,0-.437-.03.111.111,0,0,1-.1-.105c0-.075.058-.1.2-.1.567,0,1.309.03,1.382.03s.7-.03,1.076-.03c.145,0,.2.03.2.1a.111.111,0,0,1-.1.105,1.444,1.444,0,0,0-.32.03c-.349.075-.422.285-.451.705-.029.4-.014.765-.014,2.745v1.365c0,1.38-.175,2.925-1.192,3.825a3.794,3.794,0,0,1-2.676.93,3.907,3.907,0,0,1-2.661-.9,4.192,4.192,0,0,1-1.119-3.344Z" transform="translate(-325.865 -284.27)" fill="#00a1ed" stroke="rgba(0,0,0,0)" stroke-width="1"/>
          <path id="Path_67" data-name="Path 67" d="M470.8,401.463c0-1.98,0-2.34-.03-2.745s-.1-.645-.523-.705a4,4,0,0,0-.436-.03.126.126,0,0,1-.1-.105c0-.075.059-.1.2-.1.582,0,1.352.03,1.469.03s.916-.03,1.294-.03c.146,0,.217.03.217.1a.126.126,0,0,1-.116.105,1.452,1.452,0,0,0-.32.03c-.335.06-.407.285-.436.705-.029.4-.029.765-.029,2.745v1.784c0,1.846.393,2.61.945,3.121a2.448,2.448,0,0,0,1.905.689,2.59,2.59,0,0,0,1.977-.9,4.817,4.817,0,0,0,.727-3.09v-1.6c0-1.98-.014-2.34-.029-2.745s-.087-.645-.509-.705a4,4,0,0,0-.437-.03.111.111,0,0,1-.1-.105c0-.075.058-.1.2-.1.567,0,1.309.03,1.382.03s.7-.03,1.076-.03c.145,0,.2.03.2.1a.111.111,0,0,1-.1.105,1.444,1.444,0,0,0-.32.03c-.349.075-.422.285-.451.705-.029.4-.014.765-.014,2.745v1.365c0,1.38-.175,2.925-1.192,3.825a3.794,3.794,0,0,1-2.676.93,3.907,3.907,0,0,1-2.661-.9,4.192,4.192,0,0,1-1.119-3.344Z" transform="translate(-325.865 -284.27)" fill="none" stroke="#00a1ed" stroke-miterlimit="10" stroke-width="0.5"/>
          <path id="Path_68" data-name="Path 68" d="M493.4,401.463c0-1.98,0-2.34-.029-2.745-.029-.436-.1-.645-.523-.706a4.124,4.124,0,0,0-.436-.03.126.126,0,0,1-.1-.105c0-.075.059-.1.2-.1.582,0,1.44.03,1.512.03.131,0,1.207-.03,1.6-.03a4.088,4.088,0,0,1,2.385.555,2.255,2.255,0,0,1,.887,1.74,3.76,3.76,0,0,1-1.57,2.91c1.047,1.35,1.934,2.5,2.675,3.3a2.327,2.327,0,0,0,1.425.884,2.286,2.286,0,0,0,.451.045.114.114,0,0,1,.116.1c0,.075-.073.105-.306.105h-.8a2.507,2.507,0,0,1-1.367-.255,6.64,6.64,0,0,1-1.745-1.875c-.538-.69-1.105-1.515-1.382-1.859a.192.192,0,0,0-.174-.076l-1.629-.03c-.058,0-.087.03-.087.105v.3c0,1.23,0,2.22.059,2.745.044.375.117.615.509.675a4.441,4.441,0,0,0,.567.06.093.093,0,0,1,.1.1c0,.06-.058.105-.2.105-.7,0-1.512-.045-1.57-.045-.014,0-.872.045-1.265.045-.131,0-.2-.03-.2-.105a.1.1,0,0,1,.1-.1,1.754,1.754,0,0,0,.393-.06c.247-.06.276-.3.334-.675a26.907,26.907,0,0,0,.073-2.759Zm1.105,1.08a.19.19,0,0,0,.087.165,4.21,4.21,0,0,0,1.411.2,1.626,1.626,0,0,0,.96-.225,2.309,2.309,0,0,0,.771-1.95c0-1.591-.843-2.505-2.211-2.505a5.412,5.412,0,0,0-.916.075.163.163,0,0,0-.1.15Z" transform="translate(-337.163 -284.27)" fill="#00a1ed" stroke="rgba(0,0,0,0)" stroke-width="1"/>
          <path id="Path_69" data-name="Path 69" d="M493.4,401.463c0-1.98,0-2.34-.029-2.745-.029-.436-.1-.645-.523-.706a4.124,4.124,0,0,0-.436-.03.126.126,0,0,1-.1-.105c0-.075.059-.1.2-.1.582,0,1.44.03,1.512.03.131,0,1.207-.03,1.6-.03a4.088,4.088,0,0,1,2.385.555,2.255,2.255,0,0,1,.887,1.74,3.76,3.76,0,0,1-1.57,2.91c1.047,1.35,1.934,2.5,2.675,3.3a2.327,2.327,0,0,0,1.425.884,2.286,2.286,0,0,0,.451.045.114.114,0,0,1,.116.1c0,.075-.073.105-.306.105h-.8a2.507,2.507,0,0,1-1.367-.255,6.64,6.64,0,0,1-1.745-1.875c-.538-.69-1.105-1.515-1.382-1.859a.192.192,0,0,0-.174-.076l-1.629-.03c-.058,0-.087.03-.087.105v.3c0,1.23,0,2.22.059,2.745.044.375.117.615.509.675a4.441,4.441,0,0,0,.567.06.093.093,0,0,1,.1.1c0,.06-.058.105-.2.105-.7,0-1.512-.045-1.57-.045-.014,0-.872.045-1.265.045-.131,0-.2-.03-.2-.105a.1.1,0,0,1,.1-.1,1.754,1.754,0,0,0,.393-.06c.247-.06.276-.3.334-.675a26.907,26.907,0,0,0,.073-2.759Zm1.105,1.08a.19.19,0,0,0,.087.165,4.21,4.21,0,0,0,1.411.2,1.626,1.626,0,0,0,.96-.225,2.309,2.309,0,0,0,.771-1.95c0-1.591-.843-2.505-2.211-2.505a5.412,5.412,0,0,0-.916.075.163.163,0,0,0-.1.15Z" transform="translate(-337.163 -284.27)" fill="none" stroke="#00a1ed" stroke-miterlimit="10" stroke-width="0.5"/>
          <path id="Path_70" data-name="Path 70" d="M512.94,401.358c0-1.98,0-2.34-.029-2.745-.029-.435-.1-.645-.523-.7a4,4,0,0,0-.437-.03.127.127,0,0,1-.1-.1c0-.075.059-.105.2-.105.582,0,1.411.03,1.483.03.088,0,2.763.015,3.054,0a5.8,5.8,0,0,0,.582-.075c.058-.015.116-.06.175-.06.043,0,.058.06.058.12,0,.09-.073.24-.1.6-.015.12-.043.69-.073.84-.015.06-.058.135-.116.135-.073,0-.1-.06-.1-.165a1.443,1.443,0,0,0-.073-.45c-.087-.21-.218-.3-.916-.39-.219-.03-1.7-.045-1.846-.045-.059,0-.073.045-.073.135v3.465c0,.091,0,.135.073.135.159,0,1.846,0,2.137-.031.306-.029.495-.044.625-.179.088-.091.146-.165.189-.165s.073.029.073.1-.073.285-.1.705c-.029.255-.058.735-.058.825,0,.1-.029.24-.116.24-.058,0-.087-.045-.087-.12a1.166,1.166,0,0,0-.058-.42c-.044-.181-.16-.33-.654-.39-.349-.045-1.716-.06-1.934-.06-.073,0-.087.045-.087.09v1.065c0,.434-.015,1.92,0,2.175.029.855.262,1.02,1.527,1.02a4.116,4.116,0,0,0,1.279-.135.967.967,0,0,0,.583-.884c.029-.15.058-.2.13-.2s.087.105.087.2a10.829,10.829,0,0,1-.174,1.23c-.087.33-.218.33-.712.33-.96,0-1.7-.03-2.225-.046s-.873-.03-1.062-.03c-.029,0-.276,0-.552.016-.247.014-.537.03-.742.03-.13,0-.2-.03-.2-.105a.1.1,0,0,1,.1-.105,3.551,3.551,0,0,0,.393-.06c.247-.045.276-.3.334-.674a26.743,26.743,0,0,0,.073-2.76Z" transform="translate(-346.934 -284.165)" fill="#00a1ed" stroke="rgba(0,0,0,0)" stroke-width="1"/>
          <path id="Path_71" data-name="Path 71" d="M512.94,401.358c0-1.98,0-2.34-.029-2.745-.029-.435-.1-.645-.523-.7a4,4,0,0,0-.437-.03.127.127,0,0,1-.1-.1c0-.075.059-.105.2-.105.582,0,1.411.03,1.483.03.088,0,2.763.015,3.054,0a5.8,5.8,0,0,0,.582-.075c.058-.015.116-.06.175-.06.043,0,.058.06.058.12,0,.09-.073.24-.1.6-.015.12-.043.69-.073.84-.015.06-.058.135-.116.135-.073,0-.1-.06-.1-.165a1.443,1.443,0,0,0-.073-.45c-.087-.21-.218-.3-.916-.39-.219-.03-1.7-.045-1.846-.045-.059,0-.073.045-.073.135v3.465c0,.091,0,.135.073.135.159,0,1.846,0,2.137-.031.306-.029.495-.044.625-.179.088-.091.146-.165.189-.165s.073.029.073.1-.073.285-.1.705c-.029.255-.058.735-.058.825,0,.1-.029.24-.116.24-.058,0-.087-.045-.087-.12a1.166,1.166,0,0,0-.058-.42c-.044-.181-.16-.33-.654-.39-.349-.045-1.716-.06-1.934-.06-.073,0-.087.045-.087.09v1.065c0,.434-.015,1.92,0,2.175.029.855.262,1.02,1.527,1.02a4.116,4.116,0,0,0,1.279-.135.967.967,0,0,0,.583-.884c.029-.15.058-.2.13-.2s.087.105.087.2a10.829,10.829,0,0,1-.174,1.23c-.087.33-.218.33-.712.33-.96,0-1.7-.03-2.225-.046s-.873-.03-1.062-.03c-.029,0-.276,0-.552.016-.247.014-.537.03-.742.03-.13,0-.2-.03-.2-.105a.1.1,0,0,1,.1-.105,3.551,3.551,0,0,0,.393-.06c.247-.045.276-.3.334-.674a26.743,26.743,0,0,0,.073-2.76Z" transform="translate(-346.934 -284.165)" fill="none" stroke="#00a1ed" stroke-miterlimit="10" stroke-width="0.5"/>
          <path id="Path_72" data-name="Path 72" d="M538.91,398.733c0-2.34,0-2.76-.029-3.24-.029-.509-.146-.75-.625-.855a2.68,2.68,0,0,0-.495-.045c-.058,0-.116-.03-.116-.09,0-.09.073-.12.232-.12.654,0,1.57.045,1.643.045.16,0,1.265-.045,1.716-.045a4.37,4.37,0,0,1,2.661.66,2.648,2.648,0,0,1,1,2.04,4.68,4.68,0,0,1-1.76,3.465c1.193,1.575,2.182,2.91,3.025,3.84a2.984,2.984,0,0,0,1.773,1.08,3.386,3.386,0,0,0,.568.045c.073,0,.131.045.131.09,0,.091-.088.12-.349.12h-1.033a2.881,2.881,0,0,1-1.556-.285,7.739,7.739,0,0,1-1.964-2.2c-.611-.826-1.294-1.831-1.585-2.22a.232.232,0,0,0-.189-.09l-1.788-.03c-.073,0-.1.045-.1.12v.36c0,1.44,0,2.625.073,3.255.044.435.13.765.567.825a6.035,6.035,0,0,0,.655.06c.087,0,.116.045.116.09,0,.075-.073.12-.233.12-.8,0-1.715-.045-1.788-.045-.015,0-.931.045-1.367.045-.159,0-.232-.03-.232-.12,0-.045.029-.09.116-.09a2.148,2.148,0,0,0,.436-.06c.291-.06.364-.39.422-.825.073-.63.073-1.815.073-3.255Zm1.163,1.3a.2.2,0,0,0,.1.18,3.889,3.889,0,0,0,1.527.241,1.837,1.837,0,0,0,1.09-.285,2.779,2.779,0,0,0,.887-2.31c0-1.875-.96-3-2.516-3a4.266,4.266,0,0,0-.974.09.181.181,0,0,0-.116.18Z" transform="translate(-359.832 -282.575)" fill="#00a1ed" stroke="rgba(0,0,0,0)" stroke-width="1"/>
          <path id="Path_73" data-name="Path 73" d="M538.91,398.733c0-2.34,0-2.76-.029-3.24-.029-.509-.146-.75-.625-.855a2.68,2.68,0,0,0-.495-.045c-.058,0-.116-.03-.116-.09,0-.09.073-.12.232-.12.654,0,1.57.045,1.643.045.16,0,1.265-.045,1.716-.045a4.37,4.37,0,0,1,2.661.66,2.648,2.648,0,0,1,1,2.04,4.68,4.68,0,0,1-1.76,3.465c1.193,1.575,2.182,2.91,3.025,3.84a2.984,2.984,0,0,0,1.773,1.08,3.386,3.386,0,0,0,.568.045c.073,0,.131.045.131.09,0,.091-.088.12-.349.12h-1.033a2.881,2.881,0,0,1-1.556-.285,7.739,7.739,0,0,1-1.964-2.2c-.611-.826-1.294-1.831-1.585-2.22a.232.232,0,0,0-.189-.09l-1.788-.03c-.073,0-.1.045-.1.12v.36c0,1.44,0,2.625.073,3.255.044.435.13.765.567.825a6.035,6.035,0,0,0,.655.06c.087,0,.116.045.116.09,0,.075-.073.12-.233.12-.8,0-1.715-.045-1.788-.045-.015,0-.931.045-1.367.045-.159,0-.232-.03-.232-.12,0-.045.029-.09.116-.09a2.148,2.148,0,0,0,.436-.06c.291-.06.364-.39.422-.825.073-.63.073-1.815.073-3.255Zm1.163,1.3a.2.2,0,0,0,.1.18,3.889,3.889,0,0,0,1.527.241,1.837,1.837,0,0,0,1.09-.285,2.779,2.779,0,0,0,.887-2.31c0-1.875-.96-3-2.516-3a4.266,4.266,0,0,0-.974.09.181.181,0,0,0-.116.18Z" transform="translate(-359.832 -282.575)" fill="none" stroke="#00a1ed" stroke-miterlimit="10" stroke-width="0.5"/>
          <path id="Path_74" data-name="Path 74" d="M560.343,401.358c0-1.98,0-2.34-.029-2.745-.029-.435-.1-.645-.523-.7a4,4,0,0,0-.437-.03.127.127,0,0,1-.1-.1c0-.075.059-.105.2-.105.582,0,1.411.03,1.483.03.088,0,2.764.015,3.054,0a5.8,5.8,0,0,0,.581-.075c.059-.015.117-.06.175-.06.043,0,.058.06.058.12,0,.09-.073.24-.1.6-.014.12-.044.69-.073.84-.014.06-.059.135-.117.135-.073,0-.1-.06-.1-.165a1.445,1.445,0,0,0-.073-.45c-.088-.21-.218-.3-.916-.39-.219-.03-1.7-.045-1.847-.045-.059,0-.073.045-.073.135v3.465c0,.091,0,.135.073.135.16,0,1.847,0,2.137-.031s.494-.044.625-.179c.087-.091.146-.165.189-.165s.073.029.073.1-.073.285-.1.705c-.029.255-.059.735-.059.825,0,.1-.028.24-.116.24-.058,0-.088-.045-.088-.12a1.167,1.167,0,0,0-.058-.42c-.043-.181-.16-.33-.655-.39-.349-.045-1.715-.06-1.934-.06-.073,0-.087.045-.087.09v1.065c0,.434-.014,1.92,0,2.175.029.855.262,1.02,1.527,1.02a4.115,4.115,0,0,0,1.279-.135.967.967,0,0,0,.583-.884c.028-.15.058-.2.13-.2s.087.105.087.2a10.833,10.833,0,0,1-.175,1.23c-.087.33-.218.33-.712.33-.96,0-1.7-.03-2.226-.046s-.872-.03-1.062-.03c-.028,0-.276,0-.552.016-.247.014-.537.03-.741.03-.13,0-.2-.03-.2-.105a.1.1,0,0,1,.1-.105,3.551,3.551,0,0,0,.393-.06c.247-.045.276-.3.334-.674a26.743,26.743,0,0,0,.073-2.76Z" transform="translate(-370.635 -284.165)" fill="#00a1ed" stroke="rgba(0,0,0,0)" stroke-width="1"/>
          <path id="Path_75" data-name="Path 75" d="M560.343,401.358c0-1.98,0-2.34-.029-2.745-.029-.435-.1-.645-.523-.7a4,4,0,0,0-.437-.03.127.127,0,0,1-.1-.1c0-.075.059-.105.2-.105.582,0,1.411.03,1.483.03.088,0,2.764.015,3.054,0a5.8,5.8,0,0,0,.581-.075c.059-.015.117-.06.175-.06.043,0,.058.06.058.12,0,.09-.073.24-.1.6-.014.12-.044.69-.073.84-.014.06-.059.135-.117.135-.073,0-.1-.06-.1-.165a1.445,1.445,0,0,0-.073-.45c-.088-.21-.218-.3-.916-.39-.219-.03-1.7-.045-1.847-.045-.059,0-.073.045-.073.135v3.465c0,.091,0,.135.073.135.16,0,1.847,0,2.137-.031s.494-.044.625-.179c.087-.091.146-.165.189-.165s.073.029.073.1-.073.285-.1.705c-.029.255-.059.735-.059.825,0,.1-.028.24-.116.24-.058,0-.088-.045-.088-.12a1.167,1.167,0,0,0-.058-.42c-.043-.181-.16-.33-.655-.39-.349-.045-1.715-.06-1.934-.06-.073,0-.087.045-.087.09v1.065c0,.434-.014,1.92,0,2.175.029.855.262,1.02,1.527,1.02a4.115,4.115,0,0,0,1.279-.135.967.967,0,0,0,.583-.884c.028-.15.058-.2.13-.2s.087.105.087.2a10.833,10.833,0,0,1-.175,1.23c-.087.33-.218.33-.712.33-.96,0-1.7-.03-2.226-.046s-.872-.03-1.062-.03c-.028,0-.276,0-.552.016-.247.014-.537.03-.741.03-.13,0-.2-.03-.2-.105a.1.1,0,0,1,.1-.105,3.551,3.551,0,0,0,.393-.06c.247-.045.276-.3.334-.674a26.743,26.743,0,0,0,.073-2.76Z" transform="translate(-370.635 -284.165)" fill="none" stroke="#00a1ed" stroke-miterlimit="10" stroke-width="0.5"/>
          <path id="Path_76" data-name="Path 76" d="M575.115,407.044c-.174-.091-.189-.135-.189-.48,0-.631.058-1.14.073-1.35,0-.135.029-.21.1-.21s.116.045.116.15a1.972,1.972,0,0,0,.043.464,1.878,1.878,0,0,0,2.021,1.26,1.689,1.689,0,0,0,1.92-1.7c0-.914-.48-1.349-1.615-2.219l-.582-.451c-1.381-1.065-1.833-1.844-1.833-2.729,0-1.5,1.149-2.4,2.836-2.4a6.023,6.023,0,0,1,1.323.15,1.6,1.6,0,0,0,.451.06c.1,0,.131.015.131.09s-.059.48-.059,1.35c0,.2-.014.285-.1.285s-.1-.059-.117-.165a2.4,2.4,0,0,0-.189-.63c-.087-.15-.509-.63-1.657-.63-.931,0-1.7.48-1.7,1.38,0,.81.393,1.275,1.658,2.16l.363.255c1.557,1.095,2.095,1.98,2.095,3.074a2.507,2.507,0,0,1-1.193,2.176,3.823,3.823,0,0,1-2.036.449,4.574,4.574,0,0,1-1.862-.344" transform="translate(-378.472 -284.075)" fill="#00a1ed" stroke="rgba(0,0,0,0)" stroke-width="1"/>
          <path id="Path_77" data-name="Path 77" d="M575.115,407.044c-.174-.091-.189-.135-.189-.48,0-.631.058-1.14.073-1.35,0-.135.029-.21.1-.21s.116.045.116.15a1.972,1.972,0,0,0,.043.464,1.878,1.878,0,0,0,2.021,1.26,1.689,1.689,0,0,0,1.92-1.7c0-.914-.48-1.349-1.615-2.219l-.582-.451c-1.381-1.065-1.833-1.844-1.833-2.729,0-1.5,1.149-2.4,2.836-2.4a6.023,6.023,0,0,1,1.323.15,1.6,1.6,0,0,0,.451.06c.1,0,.131.015.131.09s-.059.48-.059,1.35c0,.2-.014.285-.1.285s-.1-.059-.117-.165a2.4,2.4,0,0,0-.189-.63c-.087-.15-.509-.63-1.657-.63-.931,0-1.7.48-1.7,1.38,0,.81.393,1.275,1.658,2.16l.363.255c1.557,1.095,2.095,1.98,2.095,3.074a2.507,2.507,0,0,1-1.193,2.176,3.823,3.823,0,0,1-2.036.449A4.574,4.574,0,0,1,575.115,407.044Z" transform="translate(-378.472 -284.075)" fill="none" stroke="#00a1ed" stroke-miterlimit="10" stroke-width="0.5"/>
          <path id="Path_78" data-name="Path 78" d="M594.862,397.412c2.879,0,5.06,1.815,5.06,4.786a5.031,5.031,0,0,1-5.133,5.2,4.82,4.82,0,0,1-5-5.01,4.976,4.976,0,0,1,5.075-4.98m.29,9.465c1.149,0,3.461-.63,3.461-4.32,0-3.06-1.8-4.665-3.825-4.665-2.138,0-3.679,1.38-3.679,4.155,0,2.97,1.73,4.83,4.042,4.83" transform="translate(-385.903 -284.089)" fill="#00a1ed" stroke="rgba(0,0,0,0)" stroke-width="1"/>
          <path id="Path_79" data-name="Path 79" d="M594.862,397.412c2.879,0,5.06,1.815,5.06,4.786a5.031,5.031,0,0,1-5.133,5.2,4.82,4.82,0,0,1-5-5.01A4.976,4.976,0,0,1,594.862,397.412Zm.29,9.465c1.149,0,3.461-.63,3.461-4.32,0-3.06-1.8-4.665-3.825-4.665-2.138,0-3.679,1.38-3.679,4.155C591.11,405.017,592.84,406.877,595.152,406.877Z" transform="translate(-385.903 -284.089)" fill="none" stroke="#00a1ed" stroke-miterlimit="10" stroke-width="0.5"/>
          <path id="Path_80" data-name="Path 80" d="M614.315,401.463c0-1.98,0-2.34-.029-2.745-.029-.436-.1-.645-.523-.706a4.124,4.124,0,0,0-.436-.03.126.126,0,0,1-.1-.105c0-.075.059-.1.2-.1.582,0,1.44.03,1.513.03.131,0,1.207-.03,1.6-.03a4.088,4.088,0,0,1,2.385.555,2.255,2.255,0,0,1,.887,1.74,3.761,3.761,0,0,1-1.57,2.91c1.047,1.35,1.934,2.5,2.676,3.3a2.325,2.325,0,0,0,1.425.884,2.285,2.285,0,0,0,.451.045.114.114,0,0,1,.117.1c0,.075-.073.105-.306.105h-.8a2.507,2.507,0,0,1-1.367-.255,6.64,6.64,0,0,1-1.745-1.875c-.538-.69-1.1-1.515-1.382-1.859a.192.192,0,0,0-.174-.076l-1.629-.03c-.058,0-.087.03-.087.105v.3c0,1.23,0,2.22.058,2.745.043.375.116.615.509.675a4.442,4.442,0,0,0,.567.06.093.093,0,0,1,.1.1c0,.06-.058.105-.2.105-.7,0-1.512-.045-1.57-.045-.014,0-.872.045-1.265.045-.131,0-.2-.03-.2-.105a.1.1,0,0,1,.1-.1,1.753,1.753,0,0,0,.393-.06c.247-.06.276-.3.335-.675a26.907,26.907,0,0,0,.073-2.759Zm1.105,1.08a.19.19,0,0,0,.087.165,4.209,4.209,0,0,0,1.41.2,1.624,1.624,0,0,0,.96-.225,2.308,2.308,0,0,0,.771-1.95c0-1.591-.843-2.505-2.211-2.505a5.413,5.413,0,0,0-.916.075.163.163,0,0,0-.1.15Z" transform="translate(-397.621 -284.27)" fill="#00a1ed" stroke="rgba(0,0,0,0)" stroke-width="1"/>
          <path id="Path_81" data-name="Path 81" d="M614.315,401.463c0-1.98,0-2.34-.029-2.745-.029-.436-.1-.645-.523-.706a4.124,4.124,0,0,0-.436-.03.126.126,0,0,1-.1-.105c0-.075.059-.1.2-.1.582,0,1.44.03,1.513.03.131,0,1.207-.03,1.6-.03a4.088,4.088,0,0,1,2.385.555,2.255,2.255,0,0,1,.887,1.74,3.761,3.761,0,0,1-1.57,2.91c1.047,1.35,1.934,2.5,2.676,3.3a2.325,2.325,0,0,0,1.425.884,2.285,2.285,0,0,0,.451.045.114.114,0,0,1,.117.1c0,.075-.073.105-.306.105h-.8a2.507,2.507,0,0,1-1.367-.255,6.64,6.64,0,0,1-1.745-1.875c-.538-.69-1.1-1.515-1.382-1.859a.192.192,0,0,0-.174-.076l-1.629-.03c-.058,0-.087.03-.087.105v.3c0,1.23,0,2.22.058,2.745.043.375.116.615.509.675a4.442,4.442,0,0,0,.567.06.093.093,0,0,1,.1.1c0,.06-.058.105-.2.105-.7,0-1.512-.045-1.57-.045-.014,0-.872.045-1.265.045-.131,0-.2-.03-.2-.105a.1.1,0,0,1,.1-.1,1.753,1.753,0,0,0,.393-.06c.247-.06.276-.3.335-.675a26.907,26.907,0,0,0,.073-2.759Zm1.105,1.08a.19.19,0,0,0,.087.165,4.209,4.209,0,0,0,1.41.2,1.624,1.624,0,0,0,.96-.225,2.308,2.308,0,0,0,.771-1.95c0-1.591-.843-2.505-2.211-2.505a5.413,5.413,0,0,0-.916.075.163.163,0,0,0-.1.15Z" transform="translate(-397.621 -284.27)" fill="none" stroke="#00a1ed" stroke-miterlimit="10" stroke-width="0.5"/>
          <path id="Path_82" data-name="Path 82" d="M634.469,403.533c0,1.23,0,2.235.058,2.76.044.375.1.615.495.674a4.657,4.657,0,0,0,.582.06.093.093,0,0,1,.1.105c0,.06-.059.1-.2.1-.7,0-1.512-.045-1.585-.045s-.945.045-1.323.045c-.146,0-.2-.029-.2-.1a.089.089,0,0,1,.1-.09,1.658,1.658,0,0,0,.378-.061c.261-.06.334-.314.378-.689.059-.525.059-1.53.059-2.76v-5.355l-1.848.03c-.8.015-1.1.105-1.294.4a2.1,2.1,0,0,0-.2.405c-.029.1-.073.12-.13.12a.1.1,0,0,1-.088-.1c0-.135.262-1.275.277-1.38.029-.075.087-.24.13-.24a4.416,4.416,0,0,0,.568.15c.363.045.858.06,1,.06h4.828a6.249,6.249,0,0,0,.916-.06c.189-.03.306-.06.364-.06s.058.075.058.15c0,.391-.044,1.3-.044,1.455,0,.105-.058.165-.116.165s-.088-.045-.1-.225l-.015-.135c-.043-.39-.319-.675-1.542-.7l-1.6-.03Z" transform="translate(-405.881 -284.09)" fill="#00a1ed" stroke="rgba(0,0,0,0)" stroke-width="1"/>
          <path id="Path_83" data-name="Path 83" d="M634.469,403.533c0,1.23,0,2.235.058,2.76.044.375.1.615.495.674a4.657,4.657,0,0,0,.582.06.093.093,0,0,1,.1.105c0,.06-.059.1-.2.1-.7,0-1.512-.045-1.585-.045s-.945.045-1.323.045c-.146,0-.2-.029-.2-.1a.089.089,0,0,1,.1-.09,1.658,1.658,0,0,0,.378-.061c.261-.06.334-.314.378-.689.059-.525.059-1.53.059-2.76v-5.355l-1.848.03c-.8.015-1.1.105-1.294.4a2.1,2.1,0,0,0-.2.405c-.029.1-.073.12-.13.12a.1.1,0,0,1-.088-.1c0-.135.262-1.275.277-1.38.029-.075.087-.24.13-.24a4.416,4.416,0,0,0,.568.15c.363.045.858.06,1,.06h4.828a6.249,6.249,0,0,0,.916-.06c.189-.03.306-.06.364-.06s.058.075.058.15c0,.391-.044,1.3-.044,1.455,0,.105-.058.165-.116.165s-.088-.045-.1-.225l-.015-.135c-.043-.39-.319-.675-1.542-.7l-1.6-.03Z" transform="translate(-405.881 -284.09)" fill="none" stroke="#00a1ed" stroke-miterlimit="10" stroke-width="0.5"/>
          <path id="Path_84" data-name="Path 84" d="M416.063,221.925s-41.552,31.216-84.376,18.74c0,0-39.029-14.611-60.414-13.286,0,0-19.928-.481-27.192,1.185,0,0,32.769-13.934,83.412,2.009,0,0,39.3,17.771,88.571-8.648" transform="translate(-213.049 -196.346)" fill="#f7e3b9" stroke="rgba(0,0,0,0)" stroke-width="1"/>
          <path id="Path_85" data-name="Path 85" d="M410.14,217.188s-44.669,37.2-91.883,23.986c0,0-43.114-15.788-66.493-13.663,0,0-21.83,0-29.74,2.125,0,0,35.508-17,91.374,0,0,0,43.493,19.43,96.741-12.449" transform="translate(-202.022 -193.977)" fill="#004e9c" stroke="rgba(0,0,0,0)" stroke-width="1"/>
          <path id="Path_86" data-name="Path 86" d="M410.14,217.188s-44.669,37.2-91.883,23.986c0,0-43.114-15.788-66.493-13.663,0,0-21.83,0-29.74,2.125,0,0,35.508-17,91.374,0C313.4,229.637,356.893,249.067,410.14,217.188Z" transform="translate(-202.022 -193.977)" fill="none" stroke="#004e9c" stroke-miterlimit="10" stroke-width="1"/>
        </g>
      </g>
    </g>
  </g>
</svg>
